<?xml version="1.0" encoding="utf-8" standalone="no"?>
<!DOCTYPE svg PUBLIC "-//W3C//DTD SVG 1.1//EN"
  "http://www.w3.org/Graphics/SVG/1.1/DTD/svg11.dtd">
<!-- Created with matplotlib (https://matplotlib.org/) -->
<svg height="345.6pt" version="1.1" viewBox="0 0 460.8 345.6" width="460.8pt" xmlns="http://www.w3.org/2000/svg" xmlns:xlink="http://www.w3.org/1999/xlink">
 <metadata>
  <rdf:RDF xmlns:cc="http://creativecommons.org/ns#" xmlns:dc="http://purl.org/dc/elements/1.1/" xmlns:rdf="http://www.w3.org/1999/02/22-rdf-syntax-ns#">
   <cc:Work>
    <dc:type rdf:resource="http://purl.org/dc/dcmitype/StillImage"/>
    <dc:date>2021-12-06T03:18:28.769973</dc:date>
    <dc:format>image/svg+xml</dc:format>
    <dc:creator>
     <cc:Agent>
      <dc:title>Matplotlib v3.3.2, https://matplotlib.org/</dc:title>
     </cc:Agent>
    </dc:creator>
   </cc:Work>
  </rdf:RDF>
 </metadata>
 <defs>
  <style type="text/css">*{stroke-linecap:butt;stroke-linejoin:round;}</style>
 </defs>
 <g id="figure_1">
  <g id="patch_1">
   <path d="M 0 345.6 
L 460.8 345.6 
L 460.8 0 
L 0 0 
z
" style="fill:#ffffff;"/>
  </g>
  <g id="axes_1">
   <g id="patch_2">
    <path d="M 57.6 307.584 
L 414.72 307.584 
L 414.72 41.472 
L 57.6 41.472 
z
" style="fill:#ffffff;"/>
   </g>
   <g id="matplotlib.axis_1">
    <g id="xtick_1">
     <g id="line2d_1">
      <defs>
       <path d="M 0 0 
L 0 3.5 
" id="mf15930f942" style="stroke:#000000;stroke-width:0.8;"/>
      </defs>
      <g>
       <use style="stroke:#000000;stroke-width:0.8;" x="73.197395" xlink:href="#mf15930f942" y="307.584"/>
      </g>
     </g>
     <g id="text_1">
      <!-- 0 -->
      <g transform="translate(70.016145 322.182437)scale(0.1 -0.1)">
       <defs>
        <path d="M 31.78125 66.40625 
Q 24.171875 66.40625 20.328125 58.90625 
Q 16.5 51.421875 16.5 36.375 
Q 16.5 21.390625 20.328125 13.890625 
Q 24.171875 6.390625 31.78125 6.390625 
Q 39.453125 6.390625 43.28125 13.890625 
Q 47.125 21.390625 47.125 36.375 
Q 47.125 51.421875 43.28125 58.90625 
Q 39.453125 66.40625 31.78125 66.40625 
z
M 31.78125 74.21875 
Q 44.046875 74.21875 50.515625 64.515625 
Q 56.984375 54.828125 56.984375 36.375 
Q 56.984375 17.96875 50.515625 8.265625 
Q 44.046875 -1.421875 31.78125 -1.421875 
Q 19.53125 -1.421875 13.0625 8.265625 
Q 6.59375 17.96875 6.59375 36.375 
Q 6.59375 54.828125 13.0625 64.515625 
Q 19.53125 74.21875 31.78125 74.21875 
z
" id="DejaVuSans-48"/>
       </defs>
       <use xlink:href="#DejaVuSans-48"/>
      </g>
     </g>
    </g>
    <g id="xtick_2">
     <g id="line2d_2">
      <g>
       <use style="stroke:#000000;stroke-width:0.8;" x="136.730575" xlink:href="#mf15930f942" y="307.584"/>
      </g>
     </g>
     <g id="text_2">
      <!-- 100 -->
      <g transform="translate(127.186825 322.182437)scale(0.1 -0.1)">
       <defs>
        <path d="M 12.40625 8.296875 
L 28.515625 8.296875 
L 28.515625 63.921875 
L 10.984375 60.40625 
L 10.984375 69.390625 
L 28.421875 72.90625 
L 38.28125 72.90625 
L 38.28125 8.296875 
L 54.390625 8.296875 
L 54.390625 0 
L 12.40625 0 
z
" id="DejaVuSans-49"/>
       </defs>
       <use xlink:href="#DejaVuSans-49"/>
       <use x="63.623047" xlink:href="#DejaVuSans-48"/>
       <use x="127.246094" xlink:href="#DejaVuSans-48"/>
      </g>
     </g>
    </g>
    <g id="xtick_3">
     <g id="line2d_3">
      <g>
       <use style="stroke:#000000;stroke-width:0.8;" x="200.263754" xlink:href="#mf15930f942" y="307.584"/>
      </g>
     </g>
     <g id="text_3">
      <!-- 200 -->
      <g transform="translate(190.720004 322.182437)scale(0.1 -0.1)">
       <defs>
        <path d="M 19.1875 8.296875 
L 53.609375 8.296875 
L 53.609375 0 
L 7.328125 0 
L 7.328125 8.296875 
Q 12.9375 14.109375 22.625 23.890625 
Q 32.328125 33.6875 34.8125 36.53125 
Q 39.546875 41.84375 41.421875 45.53125 
Q 43.3125 49.21875 43.3125 52.78125 
Q 43.3125 58.59375 39.234375 62.25 
Q 35.15625 65.921875 28.609375 65.921875 
Q 23.96875 65.921875 18.8125 64.3125 
Q 13.671875 62.703125 7.8125 59.421875 
L 7.8125 69.390625 
Q 13.765625 71.78125 18.9375 73 
Q 24.125 74.21875 28.421875 74.21875 
Q 39.75 74.21875 46.484375 68.546875 
Q 53.21875 62.890625 53.21875 53.421875 
Q 53.21875 48.921875 51.53125 44.890625 
Q 49.859375 40.875 45.40625 35.40625 
Q 44.1875 33.984375 37.640625 27.21875 
Q 31.109375 20.453125 19.1875 8.296875 
z
" id="DejaVuSans-50"/>
       </defs>
       <use xlink:href="#DejaVuSans-50"/>
       <use x="63.623047" xlink:href="#DejaVuSans-48"/>
       <use x="127.246094" xlink:href="#DejaVuSans-48"/>
      </g>
     </g>
    </g>
    <g id="xtick_4">
     <g id="line2d_4">
      <g>
       <use style="stroke:#000000;stroke-width:0.8;" x="263.796933" xlink:href="#mf15930f942" y="307.584"/>
      </g>
     </g>
     <g id="text_4">
      <!-- 300 -->
      <g transform="translate(254.253183 322.182437)scale(0.1 -0.1)">
       <defs>
        <path d="M 40.578125 39.3125 
Q 47.65625 37.796875 51.625 33 
Q 55.609375 28.21875 55.609375 21.1875 
Q 55.609375 10.40625 48.1875 4.484375 
Q 40.765625 -1.421875 27.09375 -1.421875 
Q 22.515625 -1.421875 17.65625 -0.515625 
Q 12.796875 0.390625 7.625 2.203125 
L 7.625 11.71875 
Q 11.71875 9.328125 16.59375 8.109375 
Q 21.484375 6.890625 26.8125 6.890625 
Q 36.078125 6.890625 40.9375 10.546875 
Q 45.796875 14.203125 45.796875 21.1875 
Q 45.796875 27.640625 41.28125 31.265625 
Q 36.765625 34.90625 28.71875 34.90625 
L 20.21875 34.90625 
L 20.21875 43.015625 
L 29.109375 43.015625 
Q 36.375 43.015625 40.234375 45.921875 
Q 44.09375 48.828125 44.09375 54.296875 
Q 44.09375 59.90625 40.109375 62.90625 
Q 36.140625 65.921875 28.71875 65.921875 
Q 24.65625 65.921875 20.015625 65.03125 
Q 15.375 64.15625 9.8125 62.3125 
L 9.8125 71.09375 
Q 15.4375 72.65625 20.34375 73.4375 
Q 25.25 74.21875 29.59375 74.21875 
Q 40.828125 74.21875 47.359375 69.109375 
Q 53.90625 64.015625 53.90625 55.328125 
Q 53.90625 49.265625 50.4375 45.09375 
Q 46.96875 40.921875 40.578125 39.3125 
z
" id="DejaVuSans-51"/>
       </defs>
       <use xlink:href="#DejaVuSans-51"/>
       <use x="63.623047" xlink:href="#DejaVuSans-48"/>
       <use x="127.246094" xlink:href="#DejaVuSans-48"/>
      </g>
     </g>
    </g>
    <g id="xtick_5">
     <g id="line2d_5">
      <g>
       <use style="stroke:#000000;stroke-width:0.8;" x="327.330112" xlink:href="#mf15930f942" y="307.584"/>
      </g>
     </g>
     <g id="text_5">
      <!-- 400 -->
      <g transform="translate(317.786362 322.182437)scale(0.1 -0.1)">
       <defs>
        <path d="M 37.796875 64.3125 
L 12.890625 25.390625 
L 37.796875 25.390625 
z
M 35.203125 72.90625 
L 47.609375 72.90625 
L 47.609375 25.390625 
L 58.015625 25.390625 
L 58.015625 17.1875 
L 47.609375 17.1875 
L 47.609375 0 
L 37.796875 0 
L 37.796875 17.1875 
L 4.890625 17.1875 
L 4.890625 26.703125 
z
" id="DejaVuSans-52"/>
       </defs>
       <use xlink:href="#DejaVuSans-52"/>
       <use x="63.623047" xlink:href="#DejaVuSans-48"/>
       <use x="127.246094" xlink:href="#DejaVuSans-48"/>
      </g>
     </g>
    </g>
    <g id="xtick_6">
     <g id="line2d_6">
      <g>
       <use style="stroke:#000000;stroke-width:0.8;" x="390.863291" xlink:href="#mf15930f942" y="307.584"/>
      </g>
     </g>
     <g id="text_6">
      <!-- 500 -->
      <g transform="translate(381.319541 322.182437)scale(0.1 -0.1)">
       <defs>
        <path d="M 10.796875 72.90625 
L 49.515625 72.90625 
L 49.515625 64.59375 
L 19.828125 64.59375 
L 19.828125 46.734375 
Q 21.96875 47.46875 24.109375 47.828125 
Q 26.265625 48.1875 28.421875 48.1875 
Q 40.625 48.1875 47.75 41.5 
Q 54.890625 34.8125 54.890625 23.390625 
Q 54.890625 11.625 47.5625 5.09375 
Q 40.234375 -1.421875 26.90625 -1.421875 
Q 22.3125 -1.421875 17.546875 -0.640625 
Q 12.796875 0.140625 7.71875 1.703125 
L 7.71875 11.625 
Q 12.109375 9.234375 16.796875 8.0625 
Q 21.484375 6.890625 26.703125 6.890625 
Q 35.15625 6.890625 40.078125 11.328125 
Q 45.015625 15.765625 45.015625 23.390625 
Q 45.015625 31 40.078125 35.4375 
Q 35.15625 39.890625 26.703125 39.890625 
Q 22.75 39.890625 18.8125 39.015625 
Q 14.890625 38.140625 10.796875 36.28125 
z
" id="DejaVuSans-53"/>
       </defs>
       <use xlink:href="#DejaVuSans-53"/>
       <use x="63.623047" xlink:href="#DejaVuSans-48"/>
       <use x="127.246094" xlink:href="#DejaVuSans-48"/>
      </g>
     </g>
    </g>
    <g id="text_7">
     <!-- Sample Number -->
     <g transform="translate(195.736562 335.860562)scale(0.1 -0.1)">
      <defs>
       <path d="M 53.515625 70.515625 
L 53.515625 60.890625 
Q 47.90625 63.578125 42.921875 64.890625 
Q 37.9375 66.21875 33.296875 66.21875 
Q 25.25 66.21875 20.875 63.09375 
Q 16.5 59.96875 16.5 54.203125 
Q 16.5 49.359375 19.40625 46.890625 
Q 22.3125 44.4375 30.421875 42.921875 
L 36.375 41.703125 
Q 47.40625 39.59375 52.65625 34.296875 
Q 57.90625 29 57.90625 20.125 
Q 57.90625 9.515625 50.796875 4.046875 
Q 43.703125 -1.421875 29.984375 -1.421875 
Q 24.8125 -1.421875 18.96875 -0.25 
Q 13.140625 0.921875 6.890625 3.21875 
L 6.890625 13.375 
Q 12.890625 10.015625 18.65625 8.296875 
Q 24.421875 6.59375 29.984375 6.59375 
Q 38.421875 6.59375 43.015625 9.90625 
Q 47.609375 13.234375 47.609375 19.390625 
Q 47.609375 24.75 44.3125 27.78125 
Q 41.015625 30.8125 33.5 32.328125 
L 27.484375 33.5 
Q 16.453125 35.6875 11.515625 40.375 
Q 6.59375 45.0625 6.59375 53.421875 
Q 6.59375 63.09375 13.40625 68.65625 
Q 20.21875 74.21875 32.171875 74.21875 
Q 37.3125 74.21875 42.625 73.28125 
Q 47.953125 72.359375 53.515625 70.515625 
z
" id="DejaVuSans-83"/>
       <path d="M 34.28125 27.484375 
Q 23.390625 27.484375 19.1875 25 
Q 14.984375 22.515625 14.984375 16.5 
Q 14.984375 11.71875 18.140625 8.90625 
Q 21.296875 6.109375 26.703125 6.109375 
Q 34.1875 6.109375 38.703125 11.40625 
Q 43.21875 16.703125 43.21875 25.484375 
L 43.21875 27.484375 
z
M 52.203125 31.203125 
L 52.203125 0 
L 43.21875 0 
L 43.21875 8.296875 
Q 40.140625 3.328125 35.546875 0.953125 
Q 30.953125 -1.421875 24.3125 -1.421875 
Q 15.921875 -1.421875 10.953125 3.296875 
Q 6 8.015625 6 15.921875 
Q 6 25.140625 12.171875 29.828125 
Q 18.359375 34.515625 30.609375 34.515625 
L 43.21875 34.515625 
L 43.21875 35.40625 
Q 43.21875 41.609375 39.140625 45 
Q 35.0625 48.390625 27.6875 48.390625 
Q 23 48.390625 18.546875 47.265625 
Q 14.109375 46.140625 10.015625 43.890625 
L 10.015625 52.203125 
Q 14.9375 54.109375 19.578125 55.046875 
Q 24.21875 56 28.609375 56 
Q 40.484375 56 46.34375 49.84375 
Q 52.203125 43.703125 52.203125 31.203125 
z
" id="DejaVuSans-97"/>
       <path d="M 52 44.1875 
Q 55.375 50.25 60.0625 53.125 
Q 64.75 56 71.09375 56 
Q 79.640625 56 84.28125 50.015625 
Q 88.921875 44.046875 88.921875 33.015625 
L 88.921875 0 
L 79.890625 0 
L 79.890625 32.71875 
Q 79.890625 40.578125 77.09375 44.375 
Q 74.3125 48.1875 68.609375 48.1875 
Q 61.625 48.1875 57.5625 43.546875 
Q 53.515625 38.921875 53.515625 30.90625 
L 53.515625 0 
L 44.484375 0 
L 44.484375 32.71875 
Q 44.484375 40.625 41.703125 44.40625 
Q 38.921875 48.1875 33.109375 48.1875 
Q 26.21875 48.1875 22.15625 43.53125 
Q 18.109375 38.875 18.109375 30.90625 
L 18.109375 0 
L 9.078125 0 
L 9.078125 54.6875 
L 18.109375 54.6875 
L 18.109375 46.1875 
Q 21.1875 51.21875 25.484375 53.609375 
Q 29.78125 56 35.6875 56 
Q 41.65625 56 45.828125 52.96875 
Q 50 49.953125 52 44.1875 
z
" id="DejaVuSans-109"/>
       <path d="M 18.109375 8.203125 
L 18.109375 -20.796875 
L 9.078125 -20.796875 
L 9.078125 54.6875 
L 18.109375 54.6875 
L 18.109375 46.390625 
Q 20.953125 51.265625 25.265625 53.625 
Q 29.59375 56 35.59375 56 
Q 45.5625 56 51.78125 48.09375 
Q 58.015625 40.1875 58.015625 27.296875 
Q 58.015625 14.40625 51.78125 6.484375 
Q 45.5625 -1.421875 35.59375 -1.421875 
Q 29.59375 -1.421875 25.265625 0.953125 
Q 20.953125 3.328125 18.109375 8.203125 
z
M 48.6875 27.296875 
Q 48.6875 37.203125 44.609375 42.84375 
Q 40.53125 48.484375 33.40625 48.484375 
Q 26.265625 48.484375 22.1875 42.84375 
Q 18.109375 37.203125 18.109375 27.296875 
Q 18.109375 17.390625 22.1875 11.75 
Q 26.265625 6.109375 33.40625 6.109375 
Q 40.53125 6.109375 44.609375 11.75 
Q 48.6875 17.390625 48.6875 27.296875 
z
" id="DejaVuSans-112"/>
       <path d="M 9.421875 75.984375 
L 18.40625 75.984375 
L 18.40625 0 
L 9.421875 0 
z
" id="DejaVuSans-108"/>
       <path d="M 56.203125 29.59375 
L 56.203125 25.203125 
L 14.890625 25.203125 
Q 15.484375 15.921875 20.484375 11.0625 
Q 25.484375 6.203125 34.421875 6.203125 
Q 39.59375 6.203125 44.453125 7.46875 
Q 49.3125 8.734375 54.109375 11.28125 
L 54.109375 2.78125 
Q 49.265625 0.734375 44.1875 -0.34375 
Q 39.109375 -1.421875 33.890625 -1.421875 
Q 20.796875 -1.421875 13.15625 6.1875 
Q 5.515625 13.8125 5.515625 26.8125 
Q 5.515625 40.234375 12.765625 48.109375 
Q 20.015625 56 32.328125 56 
Q 43.359375 56 49.78125 48.890625 
Q 56.203125 41.796875 56.203125 29.59375 
z
M 47.21875 32.234375 
Q 47.125 39.59375 43.09375 43.984375 
Q 39.0625 48.390625 32.421875 48.390625 
Q 24.90625 48.390625 20.390625 44.140625 
Q 15.875 39.890625 15.1875 32.171875 
z
" id="DejaVuSans-101"/>
       <path id="DejaVuSans-32"/>
       <path d="M 9.8125 72.90625 
L 23.09375 72.90625 
L 55.421875 11.921875 
L 55.421875 72.90625 
L 64.984375 72.90625 
L 64.984375 0 
L 51.703125 0 
L 19.390625 60.984375 
L 19.390625 0 
L 9.8125 0 
z
" id="DejaVuSans-78"/>
       <path d="M 8.5 21.578125 
L 8.5 54.6875 
L 17.484375 54.6875 
L 17.484375 21.921875 
Q 17.484375 14.15625 20.5 10.265625 
Q 23.53125 6.390625 29.59375 6.390625 
Q 36.859375 6.390625 41.078125 11.03125 
Q 45.3125 15.671875 45.3125 23.6875 
L 45.3125 54.6875 
L 54.296875 54.6875 
L 54.296875 0 
L 45.3125 0 
L 45.3125 8.40625 
Q 42.046875 3.421875 37.71875 1 
Q 33.40625 -1.421875 27.6875 -1.421875 
Q 18.265625 -1.421875 13.375 4.4375 
Q 8.5 10.296875 8.5 21.578125 
z
M 31.109375 56 
z
" id="DejaVuSans-117"/>
       <path d="M 48.6875 27.296875 
Q 48.6875 37.203125 44.609375 42.84375 
Q 40.53125 48.484375 33.40625 48.484375 
Q 26.265625 48.484375 22.1875 42.84375 
Q 18.109375 37.203125 18.109375 27.296875 
Q 18.109375 17.390625 22.1875 11.75 
Q 26.265625 6.109375 33.40625 6.109375 
Q 40.53125 6.109375 44.609375 11.75 
Q 48.6875 17.390625 48.6875 27.296875 
z
M 18.109375 46.390625 
Q 20.953125 51.265625 25.265625 53.625 
Q 29.59375 56 35.59375 56 
Q 45.5625 56 51.78125 48.09375 
Q 58.015625 40.1875 58.015625 27.296875 
Q 58.015625 14.40625 51.78125 6.484375 
Q 45.5625 -1.421875 35.59375 -1.421875 
Q 29.59375 -1.421875 25.265625 0.953125 
Q 20.953125 3.328125 18.109375 8.203125 
L 18.109375 0 
L 9.078125 0 
L 9.078125 75.984375 
L 18.109375 75.984375 
z
" id="DejaVuSans-98"/>
       <path d="M 41.109375 46.296875 
Q 39.59375 47.171875 37.8125 47.578125 
Q 36.03125 48 33.890625 48 
Q 26.265625 48 22.1875 43.046875 
Q 18.109375 38.09375 18.109375 28.8125 
L 18.109375 0 
L 9.078125 0 
L 9.078125 54.6875 
L 18.109375 54.6875 
L 18.109375 46.1875 
Q 20.953125 51.171875 25.484375 53.578125 
Q 30.03125 56 36.53125 56 
Q 37.453125 56 38.578125 55.875 
Q 39.703125 55.765625 41.0625 55.515625 
z
" id="DejaVuSans-114"/>
      </defs>
      <use xlink:href="#DejaVuSans-83"/>
      <use x="63.476562" xlink:href="#DejaVuSans-97"/>
      <use x="124.755859" xlink:href="#DejaVuSans-109"/>
      <use x="222.167969" xlink:href="#DejaVuSans-112"/>
      <use x="285.644531" xlink:href="#DejaVuSans-108"/>
      <use x="313.427734" xlink:href="#DejaVuSans-101"/>
      <use x="374.951172" xlink:href="#DejaVuSans-32"/>
      <use x="406.738281" xlink:href="#DejaVuSans-78"/>
      <use x="481.542969" xlink:href="#DejaVuSans-117"/>
      <use x="544.921875" xlink:href="#DejaVuSans-109"/>
      <use x="642.333984" xlink:href="#DejaVuSans-98"/>
      <use x="705.810547" xlink:href="#DejaVuSans-101"/>
      <use x="767.333984" xlink:href="#DejaVuSans-114"/>
     </g>
    </g>
   </g>
   <g id="matplotlib.axis_2">
    <g id="ytick_1">
     <g id="line2d_7">
      <defs>
       <path d="M 0 0 
L -3.5 0 
" id="mfb5ba55830" style="stroke:#000000;stroke-width:0.8;"/>
      </defs>
      <g>
       <use style="stroke:#000000;stroke-width:0.8;" x="57.6" xlink:href="#mfb5ba55830" y="297.858913"/>
      </g>
     </g>
     <g id="text_8">
      <!-- −0.818 -->
      <g transform="translate(13.592188 301.658131)scale(0.1 -0.1)">
       <defs>
        <path d="M 10.59375 35.5 
L 73.1875 35.5 
L 73.1875 27.203125 
L 10.59375 27.203125 
z
" id="DejaVuSans-8722"/>
        <path d="M 10.6875 12.40625 
L 21 12.40625 
L 21 0 
L 10.6875 0 
z
" id="DejaVuSans-46"/>
        <path d="M 31.78125 34.625 
Q 24.75 34.625 20.71875 30.859375 
Q 16.703125 27.09375 16.703125 20.515625 
Q 16.703125 13.921875 20.71875 10.15625 
Q 24.75 6.390625 31.78125 6.390625 
Q 38.8125 6.390625 42.859375 10.171875 
Q 46.921875 13.96875 46.921875 20.515625 
Q 46.921875 27.09375 42.890625 30.859375 
Q 38.875 34.625 31.78125 34.625 
z
M 21.921875 38.8125 
Q 15.578125 40.375 12.03125 44.71875 
Q 8.5 49.078125 8.5 55.328125 
Q 8.5 64.0625 14.71875 69.140625 
Q 20.953125 74.21875 31.78125 74.21875 
Q 42.671875 74.21875 48.875 69.140625 
Q 55.078125 64.0625 55.078125 55.328125 
Q 55.078125 49.078125 51.53125 44.71875 
Q 48 40.375 41.703125 38.8125 
Q 48.828125 37.15625 52.796875 32.3125 
Q 56.78125 27.484375 56.78125 20.515625 
Q 56.78125 9.90625 50.3125 4.234375 
Q 43.84375 -1.421875 31.78125 -1.421875 
Q 19.734375 -1.421875 13.25 4.234375 
Q 6.78125 9.90625 6.78125 20.515625 
Q 6.78125 27.484375 10.78125 32.3125 
Q 14.796875 37.15625 21.921875 38.8125 
z
M 18.3125 54.390625 
Q 18.3125 48.734375 21.84375 45.5625 
Q 25.390625 42.390625 31.78125 42.390625 
Q 38.140625 42.390625 41.71875 45.5625 
Q 45.3125 48.734375 45.3125 54.390625 
Q 45.3125 60.0625 41.71875 63.234375 
Q 38.140625 66.40625 31.78125 66.40625 
Q 25.390625 66.40625 21.84375 63.234375 
Q 18.3125 60.0625 18.3125 54.390625 
z
" id="DejaVuSans-56"/>
       </defs>
       <use xlink:href="#DejaVuSans-8722"/>
       <use x="83.789062" xlink:href="#DejaVuSans-48"/>
       <use x="147.412109" xlink:href="#DejaVuSans-46"/>
       <use x="179.199219" xlink:href="#DejaVuSans-56"/>
       <use x="242.822266" xlink:href="#DejaVuSans-49"/>
       <use x="306.445312" xlink:href="#DejaVuSans-56"/>
      </g>
     </g>
    </g>
    <g id="ytick_2">
     <g id="line2d_8">
      <g>
       <use style="stroke:#000000;stroke-width:0.8;" x="57.6" xlink:href="#mfb5ba55830" y="265.205157"/>
      </g>
     </g>
     <g id="text_9">
      <!-- −0.817 -->
      <g transform="translate(13.592188 269.004375)scale(0.1 -0.1)">
       <defs>
        <path d="M 8.203125 72.90625 
L 55.078125 72.90625 
L 55.078125 68.703125 
L 28.609375 0 
L 18.3125 0 
L 43.21875 64.59375 
L 8.203125 64.59375 
z
" id="DejaVuSans-55"/>
       </defs>
       <use xlink:href="#DejaVuSans-8722"/>
       <use x="83.789062" xlink:href="#DejaVuSans-48"/>
       <use x="147.412109" xlink:href="#DejaVuSans-46"/>
       <use x="179.199219" xlink:href="#DejaVuSans-56"/>
       <use x="242.822266" xlink:href="#DejaVuSans-49"/>
       <use x="306.445312" xlink:href="#DejaVuSans-55"/>
      </g>
     </g>
    </g>
    <g id="ytick_3">
     <g id="line2d_9">
      <g>
       <use style="stroke:#000000;stroke-width:0.8;" x="57.6" xlink:href="#mfb5ba55830" y="232.551401"/>
      </g>
     </g>
     <g id="text_10">
      <!-- −0.816 -->
      <g transform="translate(13.592188 236.350619)scale(0.1 -0.1)">
       <defs>
        <path d="M 33.015625 40.375 
Q 26.375 40.375 22.484375 35.828125 
Q 18.609375 31.296875 18.609375 23.390625 
Q 18.609375 15.53125 22.484375 10.953125 
Q 26.375 6.390625 33.015625 6.390625 
Q 39.65625 6.390625 43.53125 10.953125 
Q 47.40625 15.53125 47.40625 23.390625 
Q 47.40625 31.296875 43.53125 35.828125 
Q 39.65625 40.375 33.015625 40.375 
z
M 52.59375 71.296875 
L 52.59375 62.3125 
Q 48.875 64.0625 45.09375 64.984375 
Q 41.3125 65.921875 37.59375 65.921875 
Q 27.828125 65.921875 22.671875 59.328125 
Q 17.53125 52.734375 16.796875 39.40625 
Q 19.671875 43.65625 24.015625 45.921875 
Q 28.375 48.1875 33.59375 48.1875 
Q 44.578125 48.1875 50.953125 41.515625 
Q 57.328125 34.859375 57.328125 23.390625 
Q 57.328125 12.15625 50.6875 5.359375 
Q 44.046875 -1.421875 33.015625 -1.421875 
Q 20.359375 -1.421875 13.671875 8.265625 
Q 6.984375 17.96875 6.984375 36.375 
Q 6.984375 53.65625 15.1875 63.9375 
Q 23.390625 74.21875 37.203125 74.21875 
Q 40.921875 74.21875 44.703125 73.484375 
Q 48.484375 72.75 52.59375 71.296875 
z
" id="DejaVuSans-54"/>
       </defs>
       <use xlink:href="#DejaVuSans-8722"/>
       <use x="83.789062" xlink:href="#DejaVuSans-48"/>
       <use x="147.412109" xlink:href="#DejaVuSans-46"/>
       <use x="179.199219" xlink:href="#DejaVuSans-56"/>
       <use x="242.822266" xlink:href="#DejaVuSans-49"/>
       <use x="306.445312" xlink:href="#DejaVuSans-54"/>
      </g>
     </g>
    </g>
    <g id="ytick_4">
     <g id="line2d_10">
      <g>
       <use style="stroke:#000000;stroke-width:0.8;" x="57.6" xlink:href="#mfb5ba55830" y="199.897644"/>
      </g>
     </g>
     <g id="text_11">
      <!-- −0.815 -->
      <g transform="translate(13.592188 203.696863)scale(0.1 -0.1)">
       <use xlink:href="#DejaVuSans-8722"/>
       <use x="83.789062" xlink:href="#DejaVuSans-48"/>
       <use x="147.412109" xlink:href="#DejaVuSans-46"/>
       <use x="179.199219" xlink:href="#DejaVuSans-56"/>
       <use x="242.822266" xlink:href="#DejaVuSans-49"/>
       <use x="306.445312" xlink:href="#DejaVuSans-53"/>
      </g>
     </g>
    </g>
    <g id="ytick_5">
     <g id="line2d_11">
      <g>
       <use style="stroke:#000000;stroke-width:0.8;" x="57.6" xlink:href="#mfb5ba55830" y="167.243888"/>
      </g>
     </g>
     <g id="text_12">
      <!-- −0.814 -->
      <g transform="translate(13.592188 171.043107)scale(0.1 -0.1)">
       <use xlink:href="#DejaVuSans-8722"/>
       <use x="83.789062" xlink:href="#DejaVuSans-48"/>
       <use x="147.412109" xlink:href="#DejaVuSans-46"/>
       <use x="179.199219" xlink:href="#DejaVuSans-56"/>
       <use x="242.822266" xlink:href="#DejaVuSans-49"/>
       <use x="306.445312" xlink:href="#DejaVuSans-52"/>
      </g>
     </g>
    </g>
    <g id="ytick_6">
     <g id="line2d_12">
      <g>
       <use style="stroke:#000000;stroke-width:0.8;" x="57.6" xlink:href="#mfb5ba55830" y="134.590132"/>
      </g>
     </g>
     <g id="text_13">
      <!-- −0.813 -->
      <g transform="translate(13.592188 138.389351)scale(0.1 -0.1)">
       <use xlink:href="#DejaVuSans-8722"/>
       <use x="83.789062" xlink:href="#DejaVuSans-48"/>
       <use x="147.412109" xlink:href="#DejaVuSans-46"/>
       <use x="179.199219" xlink:href="#DejaVuSans-56"/>
       <use x="242.822266" xlink:href="#DejaVuSans-49"/>
       <use x="306.445312" xlink:href="#DejaVuSans-51"/>
      </g>
     </g>
    </g>
    <g id="ytick_7">
     <g id="line2d_13">
      <g>
       <use style="stroke:#000000;stroke-width:0.8;" x="57.6" xlink:href="#mfb5ba55830" y="101.936376"/>
      </g>
     </g>
     <g id="text_14">
      <!-- −0.812 -->
      <g transform="translate(13.592188 105.735595)scale(0.1 -0.1)">
       <use xlink:href="#DejaVuSans-8722"/>
       <use x="83.789062" xlink:href="#DejaVuSans-48"/>
       <use x="147.412109" xlink:href="#DejaVuSans-46"/>
       <use x="179.199219" xlink:href="#DejaVuSans-56"/>
       <use x="242.822266" xlink:href="#DejaVuSans-49"/>
       <use x="306.445312" xlink:href="#DejaVuSans-50"/>
      </g>
     </g>
    </g>
    <g id="ytick_8">
     <g id="line2d_14">
      <g>
       <use style="stroke:#000000;stroke-width:0.8;" x="57.6" xlink:href="#mfb5ba55830" y="69.28262"/>
      </g>
     </g>
     <g id="text_15">
      <!-- −0.811 -->
      <g transform="translate(13.592188 73.081839)scale(0.1 -0.1)">
       <use xlink:href="#DejaVuSans-8722"/>
       <use x="83.789062" xlink:href="#DejaVuSans-48"/>
       <use x="147.412109" xlink:href="#DejaVuSans-46"/>
       <use x="179.199219" xlink:href="#DejaVuSans-56"/>
       <use x="242.822266" xlink:href="#DejaVuSans-49"/>
       <use x="306.445312" xlink:href="#DejaVuSans-49"/>
      </g>
     </g>
    </g>
    <g id="text_16">
     <!-- $\langle e \rangle$ -->
     <g transform="translate(11.5125 181.528)rotate(-90)scale(0.1 -0.1)">
      <defs>
       <path d="M 8.9375 31.34375 
L 22.703125 75.875 
L 31 75.875 
L 17.234375 31.34375 
L 31 -13.1875 
L 22.703125 -13.1875 
z
" id="DejaVuSans-10216"/>
       <path d="M 48.09375 32.234375 
Q 48.25 33.015625 48.3125 33.84375 
Q 48.390625 34.671875 48.390625 35.5 
Q 48.390625 41.453125 44.890625 44.921875 
Q 41.40625 48.390625 35.40625 48.390625 
Q 28.71875 48.390625 23.578125 44.15625 
Q 18.453125 39.9375 15.828125 32.171875 
z
M 55.90625 25.203125 
L 14.109375 25.203125 
Q 13.8125 23.34375 13.71875 22.265625 
Q 13.625 21.1875 13.625 20.40625 
Q 13.625 13.625 17.796875 9.90625 
Q 21.96875 6.203125 29.59375 6.203125 
Q 35.453125 6.203125 40.671875 7.515625 
Q 45.90625 8.84375 50.390625 11.375 
L 48.6875 2.484375 
Q 43.84375 0.53125 38.6875 -0.4375 
Q 33.546875 -1.421875 28.21875 -1.421875 
Q 16.84375 -1.421875 10.71875 4.015625 
Q 4.59375 9.46875 4.59375 19.484375 
Q 4.59375 28.03125 7.640625 35.375 
Q 10.6875 42.71875 16.609375 48.484375 
Q 20.40625 52.09375 25.65625 54.046875 
Q 30.90625 56 36.8125 56 
Q 46.09375 56 51.578125 50.4375 
Q 57.078125 44.875 57.078125 35.5 
Q 57.078125 33.25 56.78125 30.6875 
Q 56.5 28.125 55.90625 25.203125 
z
" id="DejaVuSans-Oblique-101"/>
       <path d="M 30.078125 31.34375 
L 16.3125 -13.1875 
L 8.015625 -13.1875 
L 21.78125 31.34375 
L 8.015625 75.875 
L 16.3125 75.875 
z
" id="DejaVuSans-10217"/>
      </defs>
      <use transform="translate(0 0.125)" xlink:href="#DejaVuSans-10216"/>
      <use transform="translate(39.013672 0.125)" xlink:href="#DejaVuSans-Oblique-101"/>
      <use transform="translate(100.537109 0.125)" xlink:href="#DejaVuSans-10217"/>
     </g>
    </g>
   </g>
   <g id="line2d_15">
    <path clip-path="url(#pc6fc8b08f0)" d="M 73.832727 70.507136 
L 74.468059 79.18079 
L 75.103391 53.568 
L 75.738723 195.203667 
L 77.644718 254.417755 
L 78.28005 207.93353 
L 78.915382 212.210832 
L 79.550713 213.48977 
L 80.821377 246.208154 
L 81.456709 252.944299 
L 82.092041 263.32465 
L 82.727372 248.225203 
L 83.362704 241.9266 
L 83.998036 243.608058 
L 84.633368 239.138842 
L 85.2687 230.961678 
L 85.904031 246.837419 
L 86.539363 256.759885 
L 87.174695 255.140007 
L 87.810027 250.129414 
L 88.445358 243.674086 
L 89.08069 242.233239 
L 89.716022 231.884196 
L 90.351354 228.726678 
L 90.986686 237.966968 
L 91.622017 238.103947 
L 92.257349 234.000411 
L 92.892681 231.419053 
L 93.528013 227.742625 
L 94.163345 225.018773 
L 94.798676 226.308771 
L 95.434008 231.933312 
L 96.06934 235.244202 
L 97.340004 252.938515 
L 97.975335 244.011613 
L 98.610667 248.413983 
L 99.245999 247.409855 
L 99.881331 245.540015 
L 100.516663 242.390243 
L 101.151994 242.259399 
L 101.787326 246.964406 
L 102.422658 243.438944 
L 103.05799 245.678037 
L 103.693321 251.624936 
L 104.328653 251.19403 
L 104.963985 257.829489 
L 106.234649 259.98919 
L 106.86998 264.612152 
L 107.505312 255.711379 
L 108.140644 259.008364 
L 108.775976 257.446245 
L 109.411308 259.49791 
L 110.046639 257.330253 
L 110.681971 256.785745 
L 111.317303 260.215254 
L 111.952635 257.523494 
L 112.587967 256.021288 
L 113.223298 257.307353 
L 113.85863 256.706889 
L 114.493962 260.275695 
L 115.129294 262.728295 
L 115.764626 262.902336 
L 117.035289 264.533743 
L 117.670621 258.537376 
L 118.305953 260.614659 
L 118.941284 259.337685 
L 119.576616 260.597846 
L 120.211948 262.678903 
L 120.84728 261.093504 
L 121.482612 263.320047 
L 122.117943 264.457725 
L 122.753275 266.518633 
L 123.388607 266.140335 
L 124.023939 270.526698 
L 124.659271 271.740947 
L 125.294602 269.100212 
L 126.565266 271.342313 
L 127.200598 274.326599 
L 127.83593 273.423177 
L 128.471261 277.508961 
L 129.106593 277.654401 
L 129.741925 280.417588 
L 130.377257 278.658958 
L 131.012589 278.849762 
L 131.64792 280.08125 
L 132.283252 281.918262 
L 132.918584 280.793851 
L 133.553916 282.631951 
L 134.189247 281.972095 
L 134.824579 283.541335 
L 135.459911 284.118512 
L 136.095243 282.14017 
L 136.730575 283.617793 
L 137.365906 282.253408 
L 138.001238 282.994651 
L 138.63657 283.450047 
L 139.271902 283.174534 
L 139.907234 285.51657 
L 140.542565 285.90063 
L 141.177897 285.850265 
L 141.813229 286.738117 
L 142.448561 285.038943 
L 143.083893 285.912462 
L 143.719224 282.295059 
L 144.989888 283.495233 
L 145.62522 283.153981 
L 146.260552 282.664268 
L 146.895883 285.077149 
L 147.531215 282.779227 
L 148.166547 283.185477 
L 148.801879 281.008957 
L 149.43721 281.66299 
L 150.707874 284.983095 
L 151.343206 284.830595 
L 151.978538 284.478114 
L 152.613869 282.341848 
L 153.249201 281.933728 
L 153.884533 281.885569 
L 154.519865 282.053411 
L 155.155197 282.509749 
L 155.790528 280.717261 
L 156.42586 281.144115 
L 157.061192 280.857932 
L 158.331856 279.803396 
L 158.967187 281.681698 
L 159.602519 282.496941 
L 160.237851 283.928928 
L 160.873183 283.209089 
L 161.508514 283.863607 
L 162.779178 290.2976 
L 163.41451 290.805011 
L 165.320505 293.726524 
L 165.955837 294.737516 
L 166.591169 292.748433 
L 167.226501 293.512433 
L 167.861832 293.766236 
L 168.497164 292.603019 
L 169.132496 292.341834 
L 169.767828 292.788987 
L 170.40316 292.376603 
L 171.038491 292.445333 
L 171.673823 292.75413 
L 172.309155 292.174595 
L 172.944487 292.182203 
L 173.579819 291.715666 
L 174.21515 291.77484 
L 174.850482 292.268232 
L 175.485814 292.096336 
L 176.121146 292.047502 
L 176.756477 291.152873 
L 177.391809 289.837338 
L 178.027141 289.73258 
L 178.662473 290.46387 
L 179.297805 290.993314 
L 179.933136 290.381834 
L 180.568468 290.043265 
L 181.2038 288.90314 
L 181.839132 289.891205 
L 182.474464 290.314851 
L 183.745127 288.331382 
L 184.380459 288.949102 
L 185.015791 289.227004 
L 185.651123 291.305101 
L 186.286454 292.487324 
L 186.921786 292.975671 
L 187.557118 293.124118 
L 188.19245 294.135753 
L 188.827782 293.502462 
L 189.463113 293.990201 
L 190.098445 292.940884 
L 191.369109 292.560358 
L 192.00444 292.516662 
L 192.639772 293.063978 
L 193.275104 292.271924 
L 193.910436 292.754615 
L 194.545768 292.412702 
L 195.181099 292.382606 
L 195.816431 291.427561 
L 196.451763 293.770881 
L 197.087095 292.069151 
L 197.722427 291.48435 
L 198.357758 292.760907 
L 198.99309 293.57723 
L 199.628422 293.932052 
L 200.263754 293.76903 
L 200.899086 293.456342 
L 201.534417 293.386197 
L 202.169749 293.559032 
L 202.805081 294.311418 
L 203.440413 293.35807 
L 204.075745 293.841589 
L 204.711076 295.182133 
L 205.346408 295.038013 
L 205.98174 295.488 
L 206.617072 294.293239 
L 207.887735 292.919454 
L 209.158399 292.4678 
L 209.793731 292.621972 
L 210.429062 290.580791 
L 211.064394 292.810371 
L 211.699726 291.780334 
L 212.335058 292.488376 
L 212.97039 292.502583 
L 214.241053 291.819071 
L 214.876385 292.023701 
L 215.511717 292.017863 
L 216.147049 290.823842 
L 216.78238 291.89888 
L 217.417712 291.290401 
L 218.053044 290.177045 
L 219.323708 290.353873 
L 219.959039 292.00138 
L 220.594371 292.345952 
L 221.229703 292.075309 
L 221.865035 291.2549 
L 222.500366 291.158814 
L 223.135698 290.882804 
L 223.77103 290.938073 
L 224.406362 291.325589 
L 225.041694 291.089065 
L 225.677025 291.163192 
L 226.312357 290.85563 
L 226.947689 291.992706 
L 228.218353 291.753898 
L 228.853684 292.675129 
L 230.124348 291.526464 
L 230.75968 292.044108 
L 232.030343 292.111852 
L 232.665675 292.581949 
L 233.301007 292.47412 
L 233.936339 292.550257 
L 234.571671 293.012272 
L 235.207002 292.089282 
L 237.112998 292.125521 
L 237.748329 292.434481 
L 238.383661 292.214366 
L 239.018993 291.813745 
L 239.654325 292.514509 
L 240.289657 292.187961 
L 240.924988 291.597184 
L 241.56032 291.747115 
L 242.195652 291.651937 
L 242.830984 292.539683 
L 243.466316 291.799539 
L 244.101647 292.471498 
L 244.736979 291.392411 
L 245.372311 292.598615 
L 246.007643 291.901403 
L 246.642975 291.42684 
L 247.913638 291.041699 
L 248.54897 291.66091 
L 249.184302 291.128496 
L 249.819634 292.165795 
L 250.454965 292.223506 
L 251.090297 291.019117 
L 251.725629 291.758122 
L 252.360961 291.821007 
L 252.996292 291.553882 
L 253.631624 292.102107 
L 254.266956 291.255836 
L 256.808283 291.450331 
L 257.443615 291.150114 
L 258.078947 291.04693 
L 258.714279 291.193968 
L 259.34961 291.08089 
L 259.984942 291.331632 
L 260.620274 290.983637 
L 261.255606 291.522595 
L 261.890938 291.294491 
L 262.526269 291.278852 
L 263.161601 291.861925 
L 263.796933 291.249248 
L 264.432265 291.782439 
L 265.067597 291.293697 
L 265.702928 291.137547 
L 266.33826 290.640714 
L 266.973592 290.339181 
L 267.608924 289.079214 
L 268.244255 288.750163 
L 268.879587 289.263447 
L 269.514919 289.552812 
L 270.150251 289.41502 
L 270.785583 289.747315 
L 271.420914 289.263753 
L 272.056246 288.570067 
L 272.691578 288.58535 
L 273.962242 288.294643 
L 274.597573 289.023986 
L 275.868237 288.818992 
L 276.503569 287.851684 
L 277.138901 287.161247 
L 277.774232 287.430246 
L 278.409564 288.206847 
L 279.044896 288.787165 
L 279.680228 288.133745 
L 280.31556 287.972637 
L 280.950891 288.166389 
L 281.586223 288.85673 
L 282.221555 289.175023 
L 282.856887 288.402929 
L 283.492218 288.566527 
L 284.12755 288.070162 
L 284.762882 286.90446 
L 285.398214 287.025858 
L 286.033546 286.935744 
L 286.668877 286.52303 
L 287.304209 286.644479 
L 287.939541 286.536368 
L 289.845536 288.111264 
L 290.480868 287.006551 
L 291.1162 286.393208 
L 291.751532 286.509597 
L 293.022195 286.129868 
L 293.657527 285.144415 
L 294.292859 284.91646 
L 294.928191 286.168704 
L 295.563523 286.019594 
L 296.198854 285.373619 
L 296.834186 285.728553 
L 297.469518 284.890492 
L 299.375513 283.790166 
L 300.010845 285.143842 
L 300.646177 284.888622 
L 301.91684 285.33597 
L 302.552172 285.259289 
L 303.187504 284.969925 
L 303.822836 285.212329 
L 304.458168 284.462126 
L 305.093499 284.407131 
L 305.728831 284.658007 
L 306.999495 285.67254 
L 308.270158 285.959046 
L 308.90549 285.228136 
L 309.540822 284.939502 
L 310.176154 285.220902 
L 310.811486 284.815418 
L 311.446817 285.130479 
L 312.082149 284.801752 
L 312.717481 284.223588 
L 313.352813 284.404356 
L 313.988144 283.490506 
L 315.258808 283.05277 
L 315.89414 283.368274 
L 316.529472 283.244119 
L 317.164803 282.764523 
L 317.800135 282.791537 
L 318.435467 283.941941 
L 319.070799 284.325956 
L 320.976794 283.554579 
L 321.612126 283.496166 
L 322.247458 283.966489 
L 323.518121 283.99816 
L 324.153453 283.844665 
L 324.788785 284.098055 
L 325.424117 283.472651 
L 326.69478 284.115078 
L 327.330112 284.194336 
L 327.965444 283.995826 
L 329.236107 283.958784 
L 329.871439 283.31324 
L 330.506771 282.892104 
L 331.142103 283.313012 
L 332.412766 282.378891 
L 333.048098 282.899261 
L 333.68343 283.114448 
L 334.318762 283.094708 
L 334.954094 282.39296 
L 335.589425 282.382475 
L 336.224757 282.899016 
L 336.860089 282.504271 
L 338.130753 282.22162 
L 338.766084 282.424545 
L 339.401416 282.79503 
L 340.036748 282.731283 
L 340.67208 283.014445 
L 341.307411 283.144411 
L 341.942743 282.983795 
L 342.578075 283.01599 
L 343.213407 283.211782 
L 343.848739 283.719012 
L 345.119402 283.747893 
L 345.754734 284.25889 
L 346.390066 284.44287 
L 347.025398 284.01516 
L 348.296061 283.891514 
L 349.566725 283.361771 
L 350.202057 282.662465 
L 350.837388 283.176865 
L 351.47272 282.923826 
L 352.108052 282.854177 
L 352.743384 282.442536 
L 353.378716 282.596429 
L 354.014047 282.397784 
L 354.649379 282.459405 
L 355.920043 282.36122 
L 357.190706 282.733266 
L 357.826038 283.044457 
L 358.46137 283.128814 
L 359.096702 282.931157 
L 359.732033 283.076029 
L 360.367365 282.924515 
L 361.002697 283.182293 
L 361.638029 282.770486 
L 362.908692 282.796383 
L 363.544024 282.665895 
L 364.179356 282.084582 
L 364.814688 282.535569 
L 366.085351 282.857929 
L 366.720683 282.514033 
L 367.356015 282.474004 
L 367.991347 282.89642 
L 368.626679 282.603376 
L 369.26201 282.681661 
L 369.897342 282.506578 
L 370.532674 282.617441 
L 371.168006 282.194335 
L 371.803337 282.070474 
L 372.438669 281.224389 
L 373.709333 281.710232 
L 374.344665 281.456256 
L 375.615328 280.45844 
L 376.25066 280.693442 
L 376.885992 280.75924 
L 378.156655 280.682952 
L 380.062651 280.814987 
L 380.697983 280.565156 
L 381.333314 280.523387 
L 381.968646 279.715837 
L 382.603978 280.53172 
L 383.874642 281.312924 
L 385.145305 281.238999 
L 385.780637 281.41091 
L 386.415969 280.857268 
L 387.0513 280.787988 
L 387.686632 280.832782 
L 388.321964 280.408739 
L 389.592628 280.320633 
L 390.227959 280.470706 
L 390.863291 280.265885 
L 391.498623 280.517308 
L 392.133955 281.052311 
L 392.769287 281.157539 
L 393.404618 281.854766 
L 394.03995 282.181068 
L 394.675282 282.02168 
L 395.310614 282.147513 
L 395.945946 281.861465 
L 396.581277 281.234927 
L 397.216609 281.160278 
L 397.851941 280.779193 
L 398.487273 280.562228 
L 398.487273 280.562228 
" style="fill:none;stroke:#1f77b4;stroke-linecap:square;stroke-width:1.5;"/>
   </g>
   <g id="patch_3">
    <path d="M 57.6 307.584 
L 57.6 41.472 
" style="fill:none;stroke:#000000;stroke-linecap:square;stroke-linejoin:miter;stroke-width:0.8;"/>
   </g>
   <g id="patch_4">
    <path d="M 414.72 307.584 
L 414.72 41.472 
" style="fill:none;stroke:#000000;stroke-linecap:square;stroke-linejoin:miter;stroke-width:0.8;"/>
   </g>
   <g id="patch_5">
    <path d="M 57.6 307.584 
L 414.72 307.584 
" style="fill:none;stroke:#000000;stroke-linecap:square;stroke-linejoin:miter;stroke-width:0.8;"/>
   </g>
   <g id="patch_6">
    <path d="M 57.6 41.472 
L 414.72 41.472 
" style="fill:none;stroke:#000000;stroke-linecap:square;stroke-linejoin:miter;stroke-width:0.8;"/>
   </g>
   <g id="legend_1">
    <g id="line2d_16">
     <path d="M 313.22 54.672 
L 333.22 54.672 
" style="fill:none;stroke:#1f77b4;stroke-linecap:square;stroke-width:1.5;"/>
    </g>
    <g id="line2d_17"/>
    <g id="text_17">
     <!-- $\beta=3.0$,L=16 -->
     <g transform="translate(341.22 58.172)scale(0.1 -0.1)">
      <defs>
       <path d="M 13.625 3.375 
L 8.9375 -20.796875 
L -0.09375 -20.796875 
L 14.5 54.34375 
Q 18.84375 76.609375 39.65625 76.609375 
Q 60.75 76.609375 57.171875 57.8125 
Q 54.734375 44.4375 45.21875 39.546875 
Q 58.015625 35.15625 55.515625 22.125 
Q 51.125 -1.078125 27.484375 -1.03125 
Q 17.140625 -0.984375 13.625 3.375 
z
M 15.921875 15.09375 
Q 19.671875 6.59375 29.296875 6.640625 
Q 43.359375 6.640625 46.34375 21.96875 
Q 49.03125 35.75 26.171875 34.671875 
L 27.78125 42.96875 
Q 45.453125 42.671875 48.53125 58.59375 
Q 50.640625 69.34375 39.203125 69.28125 
Q 26.421875 69.28125 23.484375 54.046875 
z
" id="DejaVuSans-Oblique-946"/>
       <path d="M 10.59375 45.40625 
L 73.1875 45.40625 
L 73.1875 37.203125 
L 10.59375 37.203125 
z
M 10.59375 25.484375 
L 73.1875 25.484375 
L 73.1875 17.1875 
L 10.59375 17.1875 
z
" id="DejaVuSans-61"/>
       <path d="M 11.71875 12.40625 
L 22.015625 12.40625 
L 22.015625 4 
L 14.015625 -11.625 
L 7.71875 -11.625 
L 11.71875 4 
z
" id="DejaVuSans-44"/>
       <path d="M 9.8125 72.90625 
L 19.671875 72.90625 
L 19.671875 8.296875 
L 55.171875 8.296875 
L 55.171875 0 
L 9.8125 0 
z
" id="DejaVuSans-76"/>
      </defs>
      <use transform="translate(0 0.390625)" xlink:href="#DejaVuSans-Oblique-946"/>
      <use transform="translate(83.300781 0.390625)" xlink:href="#DejaVuSans-61"/>
      <use transform="translate(186.572266 0.390625)" xlink:href="#DejaVuSans-51"/>
      <use transform="translate(250.195312 0.390625)" xlink:href="#DejaVuSans-46"/>
      <use transform="translate(281.982422 0.390625)" xlink:href="#DejaVuSans-48"/>
      <use transform="translate(345.605469 0.390625)" xlink:href="#DejaVuSans-44"/>
      <use transform="translate(377.392578 0.390625)" xlink:href="#DejaVuSans-76"/>
      <use transform="translate(433.105469 0.390625)" xlink:href="#DejaVuSans-61"/>
      <use transform="translate(516.894531 0.390625)" xlink:href="#DejaVuSans-49"/>
      <use transform="translate(580.517578 0.390625)" xlink:href="#DejaVuSans-54"/>
     </g>
    </g>
   </g>
  </g>
 </g>
 <defs>
  <clipPath id="pc6fc8b08f0">
   <rect height="266.112" width="357.12" x="57.6" y="41.472"/>
  </clipPath>
 </defs>
</svg>
