<?xml version="1.0" encoding="utf-8" standalone="no"?>
<!DOCTYPE svg PUBLIC "-//W3C//DTD SVG 1.1//EN"
  "http://www.w3.org/Graphics/SVG/1.1/DTD/svg11.dtd">
<!-- Created with matplotlib (https://matplotlib.org/) -->
<svg height="345.6pt" version="1.1" viewBox="0 0 460.8 345.6" width="460.8pt" xmlns="http://www.w3.org/2000/svg" xmlns:xlink="http://www.w3.org/1999/xlink">
 <metadata>
  <rdf:RDF xmlns:cc="http://creativecommons.org/ns#" xmlns:dc="http://purl.org/dc/elements/1.1/" xmlns:rdf="http://www.w3.org/1999/02/22-rdf-syntax-ns#">
   <cc:Work>
    <dc:type rdf:resource="http://purl.org/dc/dcmitype/StillImage"/>
    <dc:date>2021-12-06T03:18:18.614862</dc:date>
    <dc:format>image/svg+xml</dc:format>
    <dc:creator>
     <cc:Agent>
      <dc:title>Matplotlib v3.3.2, https://matplotlib.org/</dc:title>
     </cc:Agent>
    </dc:creator>
   </cc:Work>
  </rdf:RDF>
 </metadata>
 <defs>
  <style type="text/css">*{stroke-linecap:butt;stroke-linejoin:round;}</style>
 </defs>
 <g id="figure_1">
  <g id="patch_1">
   <path d="M 0 345.6 
L 460.8 345.6 
L 460.8 0 
L 0 0 
z
" style="fill:#ffffff;"/>
  </g>
  <g id="axes_1">
   <g id="patch_2">
    <path d="M 57.6 307.584 
L 414.72 307.584 
L 414.72 41.472 
L 57.6 41.472 
z
" style="fill:#ffffff;"/>
   </g>
   <g id="matplotlib.axis_1">
    <g id="xtick_1">
     <g id="line2d_1">
      <defs>
       <path d="M 0 0 
L 0 3.5 
" id="m36c6569f2a" style="stroke:#000000;stroke-width:0.8;"/>
      </defs>
      <g>
       <use style="stroke:#000000;stroke-width:0.8;" x="73.197395" xlink:href="#m36c6569f2a" y="307.584"/>
      </g>
     </g>
     <g id="text_1">
      <!-- 0 -->
      <g transform="translate(70.016145 322.182437)scale(0.1 -0.1)">
       <defs>
        <path d="M 31.78125 66.40625 
Q 24.171875 66.40625 20.328125 58.90625 
Q 16.5 51.421875 16.5 36.375 
Q 16.5 21.390625 20.328125 13.890625 
Q 24.171875 6.390625 31.78125 6.390625 
Q 39.453125 6.390625 43.28125 13.890625 
Q 47.125 21.390625 47.125 36.375 
Q 47.125 51.421875 43.28125 58.90625 
Q 39.453125 66.40625 31.78125 66.40625 
z
M 31.78125 74.21875 
Q 44.046875 74.21875 50.515625 64.515625 
Q 56.984375 54.828125 56.984375 36.375 
Q 56.984375 17.96875 50.515625 8.265625 
Q 44.046875 -1.421875 31.78125 -1.421875 
Q 19.53125 -1.421875 13.0625 8.265625 
Q 6.59375 17.96875 6.59375 36.375 
Q 6.59375 54.828125 13.0625 64.515625 
Q 19.53125 74.21875 31.78125 74.21875 
z
" id="DejaVuSans-48"/>
       </defs>
       <use xlink:href="#DejaVuSans-48"/>
      </g>
     </g>
    </g>
    <g id="xtick_2">
     <g id="line2d_2">
      <g>
       <use style="stroke:#000000;stroke-width:0.8;" x="136.730575" xlink:href="#m36c6569f2a" y="307.584"/>
      </g>
     </g>
     <g id="text_2">
      <!-- 100 -->
      <g transform="translate(127.186825 322.182437)scale(0.1 -0.1)">
       <defs>
        <path d="M 12.40625 8.296875 
L 28.515625 8.296875 
L 28.515625 63.921875 
L 10.984375 60.40625 
L 10.984375 69.390625 
L 28.421875 72.90625 
L 38.28125 72.90625 
L 38.28125 8.296875 
L 54.390625 8.296875 
L 54.390625 0 
L 12.40625 0 
z
" id="DejaVuSans-49"/>
       </defs>
       <use xlink:href="#DejaVuSans-49"/>
       <use x="63.623047" xlink:href="#DejaVuSans-48"/>
       <use x="127.246094" xlink:href="#DejaVuSans-48"/>
      </g>
     </g>
    </g>
    <g id="xtick_3">
     <g id="line2d_3">
      <g>
       <use style="stroke:#000000;stroke-width:0.8;" x="200.263754" xlink:href="#m36c6569f2a" y="307.584"/>
      </g>
     </g>
     <g id="text_3">
      <!-- 200 -->
      <g transform="translate(190.720004 322.182437)scale(0.1 -0.1)">
       <defs>
        <path d="M 19.1875 8.296875 
L 53.609375 8.296875 
L 53.609375 0 
L 7.328125 0 
L 7.328125 8.296875 
Q 12.9375 14.109375 22.625 23.890625 
Q 32.328125 33.6875 34.8125 36.53125 
Q 39.546875 41.84375 41.421875 45.53125 
Q 43.3125 49.21875 43.3125 52.78125 
Q 43.3125 58.59375 39.234375 62.25 
Q 35.15625 65.921875 28.609375 65.921875 
Q 23.96875 65.921875 18.8125 64.3125 
Q 13.671875 62.703125 7.8125 59.421875 
L 7.8125 69.390625 
Q 13.765625 71.78125 18.9375 73 
Q 24.125 74.21875 28.421875 74.21875 
Q 39.75 74.21875 46.484375 68.546875 
Q 53.21875 62.890625 53.21875 53.421875 
Q 53.21875 48.921875 51.53125 44.890625 
Q 49.859375 40.875 45.40625 35.40625 
Q 44.1875 33.984375 37.640625 27.21875 
Q 31.109375 20.453125 19.1875 8.296875 
z
" id="DejaVuSans-50"/>
       </defs>
       <use xlink:href="#DejaVuSans-50"/>
       <use x="63.623047" xlink:href="#DejaVuSans-48"/>
       <use x="127.246094" xlink:href="#DejaVuSans-48"/>
      </g>
     </g>
    </g>
    <g id="xtick_4">
     <g id="line2d_4">
      <g>
       <use style="stroke:#000000;stroke-width:0.8;" x="263.796933" xlink:href="#m36c6569f2a" y="307.584"/>
      </g>
     </g>
     <g id="text_4">
      <!-- 300 -->
      <g transform="translate(254.253183 322.182437)scale(0.1 -0.1)">
       <defs>
        <path d="M 40.578125 39.3125 
Q 47.65625 37.796875 51.625 33 
Q 55.609375 28.21875 55.609375 21.1875 
Q 55.609375 10.40625 48.1875 4.484375 
Q 40.765625 -1.421875 27.09375 -1.421875 
Q 22.515625 -1.421875 17.65625 -0.515625 
Q 12.796875 0.390625 7.625 2.203125 
L 7.625 11.71875 
Q 11.71875 9.328125 16.59375 8.109375 
Q 21.484375 6.890625 26.8125 6.890625 
Q 36.078125 6.890625 40.9375 10.546875 
Q 45.796875 14.203125 45.796875 21.1875 
Q 45.796875 27.640625 41.28125 31.265625 
Q 36.765625 34.90625 28.71875 34.90625 
L 20.21875 34.90625 
L 20.21875 43.015625 
L 29.109375 43.015625 
Q 36.375 43.015625 40.234375 45.921875 
Q 44.09375 48.828125 44.09375 54.296875 
Q 44.09375 59.90625 40.109375 62.90625 
Q 36.140625 65.921875 28.71875 65.921875 
Q 24.65625 65.921875 20.015625 65.03125 
Q 15.375 64.15625 9.8125 62.3125 
L 9.8125 71.09375 
Q 15.4375 72.65625 20.34375 73.4375 
Q 25.25 74.21875 29.59375 74.21875 
Q 40.828125 74.21875 47.359375 69.109375 
Q 53.90625 64.015625 53.90625 55.328125 
Q 53.90625 49.265625 50.4375 45.09375 
Q 46.96875 40.921875 40.578125 39.3125 
z
" id="DejaVuSans-51"/>
       </defs>
       <use xlink:href="#DejaVuSans-51"/>
       <use x="63.623047" xlink:href="#DejaVuSans-48"/>
       <use x="127.246094" xlink:href="#DejaVuSans-48"/>
      </g>
     </g>
    </g>
    <g id="xtick_5">
     <g id="line2d_5">
      <g>
       <use style="stroke:#000000;stroke-width:0.8;" x="327.330112" xlink:href="#m36c6569f2a" y="307.584"/>
      </g>
     </g>
     <g id="text_5">
      <!-- 400 -->
      <g transform="translate(317.786362 322.182437)scale(0.1 -0.1)">
       <defs>
        <path d="M 37.796875 64.3125 
L 12.890625 25.390625 
L 37.796875 25.390625 
z
M 35.203125 72.90625 
L 47.609375 72.90625 
L 47.609375 25.390625 
L 58.015625 25.390625 
L 58.015625 17.1875 
L 47.609375 17.1875 
L 47.609375 0 
L 37.796875 0 
L 37.796875 17.1875 
L 4.890625 17.1875 
L 4.890625 26.703125 
z
" id="DejaVuSans-52"/>
       </defs>
       <use xlink:href="#DejaVuSans-52"/>
       <use x="63.623047" xlink:href="#DejaVuSans-48"/>
       <use x="127.246094" xlink:href="#DejaVuSans-48"/>
      </g>
     </g>
    </g>
    <g id="xtick_6">
     <g id="line2d_6">
      <g>
       <use style="stroke:#000000;stroke-width:0.8;" x="390.863291" xlink:href="#m36c6569f2a" y="307.584"/>
      </g>
     </g>
     <g id="text_6">
      <!-- 500 -->
      <g transform="translate(381.319541 322.182437)scale(0.1 -0.1)">
       <defs>
        <path d="M 10.796875 72.90625 
L 49.515625 72.90625 
L 49.515625 64.59375 
L 19.828125 64.59375 
L 19.828125 46.734375 
Q 21.96875 47.46875 24.109375 47.828125 
Q 26.265625 48.1875 28.421875 48.1875 
Q 40.625 48.1875 47.75 41.5 
Q 54.890625 34.8125 54.890625 23.390625 
Q 54.890625 11.625 47.5625 5.09375 
Q 40.234375 -1.421875 26.90625 -1.421875 
Q 22.3125 -1.421875 17.546875 -0.640625 
Q 12.796875 0.140625 7.71875 1.703125 
L 7.71875 11.625 
Q 12.109375 9.234375 16.796875 8.0625 
Q 21.484375 6.890625 26.703125 6.890625 
Q 35.15625 6.890625 40.078125 11.328125 
Q 45.015625 15.765625 45.015625 23.390625 
Q 45.015625 31 40.078125 35.4375 
Q 35.15625 39.890625 26.703125 39.890625 
Q 22.75 39.890625 18.8125 39.015625 
Q 14.890625 38.140625 10.796875 36.28125 
z
" id="DejaVuSans-53"/>
       </defs>
       <use xlink:href="#DejaVuSans-53"/>
       <use x="63.623047" xlink:href="#DejaVuSans-48"/>
       <use x="127.246094" xlink:href="#DejaVuSans-48"/>
      </g>
     </g>
    </g>
    <g id="text_7">
     <!-- Sample Number -->
     <g transform="translate(195.736562 335.860562)scale(0.1 -0.1)">
      <defs>
       <path d="M 53.515625 70.515625 
L 53.515625 60.890625 
Q 47.90625 63.578125 42.921875 64.890625 
Q 37.9375 66.21875 33.296875 66.21875 
Q 25.25 66.21875 20.875 63.09375 
Q 16.5 59.96875 16.5 54.203125 
Q 16.5 49.359375 19.40625 46.890625 
Q 22.3125 44.4375 30.421875 42.921875 
L 36.375 41.703125 
Q 47.40625 39.59375 52.65625 34.296875 
Q 57.90625 29 57.90625 20.125 
Q 57.90625 9.515625 50.796875 4.046875 
Q 43.703125 -1.421875 29.984375 -1.421875 
Q 24.8125 -1.421875 18.96875 -0.25 
Q 13.140625 0.921875 6.890625 3.21875 
L 6.890625 13.375 
Q 12.890625 10.015625 18.65625 8.296875 
Q 24.421875 6.59375 29.984375 6.59375 
Q 38.421875 6.59375 43.015625 9.90625 
Q 47.609375 13.234375 47.609375 19.390625 
Q 47.609375 24.75 44.3125 27.78125 
Q 41.015625 30.8125 33.5 32.328125 
L 27.484375 33.5 
Q 16.453125 35.6875 11.515625 40.375 
Q 6.59375 45.0625 6.59375 53.421875 
Q 6.59375 63.09375 13.40625 68.65625 
Q 20.21875 74.21875 32.171875 74.21875 
Q 37.3125 74.21875 42.625 73.28125 
Q 47.953125 72.359375 53.515625 70.515625 
z
" id="DejaVuSans-83"/>
       <path d="M 34.28125 27.484375 
Q 23.390625 27.484375 19.1875 25 
Q 14.984375 22.515625 14.984375 16.5 
Q 14.984375 11.71875 18.140625 8.90625 
Q 21.296875 6.109375 26.703125 6.109375 
Q 34.1875 6.109375 38.703125 11.40625 
Q 43.21875 16.703125 43.21875 25.484375 
L 43.21875 27.484375 
z
M 52.203125 31.203125 
L 52.203125 0 
L 43.21875 0 
L 43.21875 8.296875 
Q 40.140625 3.328125 35.546875 0.953125 
Q 30.953125 -1.421875 24.3125 -1.421875 
Q 15.921875 -1.421875 10.953125 3.296875 
Q 6 8.015625 6 15.921875 
Q 6 25.140625 12.171875 29.828125 
Q 18.359375 34.515625 30.609375 34.515625 
L 43.21875 34.515625 
L 43.21875 35.40625 
Q 43.21875 41.609375 39.140625 45 
Q 35.0625 48.390625 27.6875 48.390625 
Q 23 48.390625 18.546875 47.265625 
Q 14.109375 46.140625 10.015625 43.890625 
L 10.015625 52.203125 
Q 14.9375 54.109375 19.578125 55.046875 
Q 24.21875 56 28.609375 56 
Q 40.484375 56 46.34375 49.84375 
Q 52.203125 43.703125 52.203125 31.203125 
z
" id="DejaVuSans-97"/>
       <path d="M 52 44.1875 
Q 55.375 50.25 60.0625 53.125 
Q 64.75 56 71.09375 56 
Q 79.640625 56 84.28125 50.015625 
Q 88.921875 44.046875 88.921875 33.015625 
L 88.921875 0 
L 79.890625 0 
L 79.890625 32.71875 
Q 79.890625 40.578125 77.09375 44.375 
Q 74.3125 48.1875 68.609375 48.1875 
Q 61.625 48.1875 57.5625 43.546875 
Q 53.515625 38.921875 53.515625 30.90625 
L 53.515625 0 
L 44.484375 0 
L 44.484375 32.71875 
Q 44.484375 40.625 41.703125 44.40625 
Q 38.921875 48.1875 33.109375 48.1875 
Q 26.21875 48.1875 22.15625 43.53125 
Q 18.109375 38.875 18.109375 30.90625 
L 18.109375 0 
L 9.078125 0 
L 9.078125 54.6875 
L 18.109375 54.6875 
L 18.109375 46.1875 
Q 21.1875 51.21875 25.484375 53.609375 
Q 29.78125 56 35.6875 56 
Q 41.65625 56 45.828125 52.96875 
Q 50 49.953125 52 44.1875 
z
" id="DejaVuSans-109"/>
       <path d="M 18.109375 8.203125 
L 18.109375 -20.796875 
L 9.078125 -20.796875 
L 9.078125 54.6875 
L 18.109375 54.6875 
L 18.109375 46.390625 
Q 20.953125 51.265625 25.265625 53.625 
Q 29.59375 56 35.59375 56 
Q 45.5625 56 51.78125 48.09375 
Q 58.015625 40.1875 58.015625 27.296875 
Q 58.015625 14.40625 51.78125 6.484375 
Q 45.5625 -1.421875 35.59375 -1.421875 
Q 29.59375 -1.421875 25.265625 0.953125 
Q 20.953125 3.328125 18.109375 8.203125 
z
M 48.6875 27.296875 
Q 48.6875 37.203125 44.609375 42.84375 
Q 40.53125 48.484375 33.40625 48.484375 
Q 26.265625 48.484375 22.1875 42.84375 
Q 18.109375 37.203125 18.109375 27.296875 
Q 18.109375 17.390625 22.1875 11.75 
Q 26.265625 6.109375 33.40625 6.109375 
Q 40.53125 6.109375 44.609375 11.75 
Q 48.6875 17.390625 48.6875 27.296875 
z
" id="DejaVuSans-112"/>
       <path d="M 9.421875 75.984375 
L 18.40625 75.984375 
L 18.40625 0 
L 9.421875 0 
z
" id="DejaVuSans-108"/>
       <path d="M 56.203125 29.59375 
L 56.203125 25.203125 
L 14.890625 25.203125 
Q 15.484375 15.921875 20.484375 11.0625 
Q 25.484375 6.203125 34.421875 6.203125 
Q 39.59375 6.203125 44.453125 7.46875 
Q 49.3125 8.734375 54.109375 11.28125 
L 54.109375 2.78125 
Q 49.265625 0.734375 44.1875 -0.34375 
Q 39.109375 -1.421875 33.890625 -1.421875 
Q 20.796875 -1.421875 13.15625 6.1875 
Q 5.515625 13.8125 5.515625 26.8125 
Q 5.515625 40.234375 12.765625 48.109375 
Q 20.015625 56 32.328125 56 
Q 43.359375 56 49.78125 48.890625 
Q 56.203125 41.796875 56.203125 29.59375 
z
M 47.21875 32.234375 
Q 47.125 39.59375 43.09375 43.984375 
Q 39.0625 48.390625 32.421875 48.390625 
Q 24.90625 48.390625 20.390625 44.140625 
Q 15.875 39.890625 15.1875 32.171875 
z
" id="DejaVuSans-101"/>
       <path id="DejaVuSans-32"/>
       <path d="M 9.8125 72.90625 
L 23.09375 72.90625 
L 55.421875 11.921875 
L 55.421875 72.90625 
L 64.984375 72.90625 
L 64.984375 0 
L 51.703125 0 
L 19.390625 60.984375 
L 19.390625 0 
L 9.8125 0 
z
" id="DejaVuSans-78"/>
       <path d="M 8.5 21.578125 
L 8.5 54.6875 
L 17.484375 54.6875 
L 17.484375 21.921875 
Q 17.484375 14.15625 20.5 10.265625 
Q 23.53125 6.390625 29.59375 6.390625 
Q 36.859375 6.390625 41.078125 11.03125 
Q 45.3125 15.671875 45.3125 23.6875 
L 45.3125 54.6875 
L 54.296875 54.6875 
L 54.296875 0 
L 45.3125 0 
L 45.3125 8.40625 
Q 42.046875 3.421875 37.71875 1 
Q 33.40625 -1.421875 27.6875 -1.421875 
Q 18.265625 -1.421875 13.375 4.4375 
Q 8.5 10.296875 8.5 21.578125 
z
M 31.109375 56 
z
" id="DejaVuSans-117"/>
       <path d="M 48.6875 27.296875 
Q 48.6875 37.203125 44.609375 42.84375 
Q 40.53125 48.484375 33.40625 48.484375 
Q 26.265625 48.484375 22.1875 42.84375 
Q 18.109375 37.203125 18.109375 27.296875 
Q 18.109375 17.390625 22.1875 11.75 
Q 26.265625 6.109375 33.40625 6.109375 
Q 40.53125 6.109375 44.609375 11.75 
Q 48.6875 17.390625 48.6875 27.296875 
z
M 18.109375 46.390625 
Q 20.953125 51.265625 25.265625 53.625 
Q 29.59375 56 35.59375 56 
Q 45.5625 56 51.78125 48.09375 
Q 58.015625 40.1875 58.015625 27.296875 
Q 58.015625 14.40625 51.78125 6.484375 
Q 45.5625 -1.421875 35.59375 -1.421875 
Q 29.59375 -1.421875 25.265625 0.953125 
Q 20.953125 3.328125 18.109375 8.203125 
L 18.109375 0 
L 9.078125 0 
L 9.078125 75.984375 
L 18.109375 75.984375 
z
" id="DejaVuSans-98"/>
       <path d="M 41.109375 46.296875 
Q 39.59375 47.171875 37.8125 47.578125 
Q 36.03125 48 33.890625 48 
Q 26.265625 48 22.1875 43.046875 
Q 18.109375 38.09375 18.109375 28.8125 
L 18.109375 0 
L 9.078125 0 
L 9.078125 54.6875 
L 18.109375 54.6875 
L 18.109375 46.1875 
Q 20.953125 51.171875 25.484375 53.578125 
Q 30.03125 56 36.53125 56 
Q 37.453125 56 38.578125 55.875 
Q 39.703125 55.765625 41.0625 55.515625 
z
" id="DejaVuSans-114"/>
      </defs>
      <use xlink:href="#DejaVuSans-83"/>
      <use x="63.476562" xlink:href="#DejaVuSans-97"/>
      <use x="124.755859" xlink:href="#DejaVuSans-109"/>
      <use x="222.167969" xlink:href="#DejaVuSans-112"/>
      <use x="285.644531" xlink:href="#DejaVuSans-108"/>
      <use x="313.427734" xlink:href="#DejaVuSans-101"/>
      <use x="374.951172" xlink:href="#DejaVuSans-32"/>
      <use x="406.738281" xlink:href="#DejaVuSans-78"/>
      <use x="481.542969" xlink:href="#DejaVuSans-117"/>
      <use x="544.921875" xlink:href="#DejaVuSans-109"/>
      <use x="642.333984" xlink:href="#DejaVuSans-98"/>
      <use x="705.810547" xlink:href="#DejaVuSans-101"/>
      <use x="767.333984" xlink:href="#DejaVuSans-114"/>
     </g>
    </g>
   </g>
   <g id="matplotlib.axis_2">
    <g id="ytick_1">
     <g id="line2d_7">
      <defs>
       <path d="M 0 0 
L -3.5 0 
" id="m53ba80e994" style="stroke:#000000;stroke-width:0.8;"/>
      </defs>
      <g>
       <use style="stroke:#000000;stroke-width:0.8;" x="57.6" xlink:href="#m53ba80e994" y="249.526444"/>
      </g>
     </g>
     <g id="text_8">
      <!-- −0.0004 -->
      <g transform="translate(7.229687 253.325663)scale(0.1 -0.1)">
       <defs>
        <path d="M 10.59375 35.5 
L 73.1875 35.5 
L 73.1875 27.203125 
L 10.59375 27.203125 
z
" id="DejaVuSans-8722"/>
        <path d="M 10.6875 12.40625 
L 21 12.40625 
L 21 0 
L 10.6875 0 
z
" id="DejaVuSans-46"/>
       </defs>
       <use xlink:href="#DejaVuSans-8722"/>
       <use x="83.789062" xlink:href="#DejaVuSans-48"/>
       <use x="147.412109" xlink:href="#DejaVuSans-46"/>
       <use x="179.199219" xlink:href="#DejaVuSans-48"/>
       <use x="242.822266" xlink:href="#DejaVuSans-48"/>
       <use x="306.445312" xlink:href="#DejaVuSans-48"/>
       <use x="370.068359" xlink:href="#DejaVuSans-52"/>
      </g>
     </g>
    </g>
    <g id="ytick_2">
     <g id="line2d_8">
      <g>
       <use style="stroke:#000000;stroke-width:0.8;" x="57.6" xlink:href="#m53ba80e994" y="190.695653"/>
      </g>
     </g>
     <g id="text_9">
      <!-- −0.0003 -->
      <g transform="translate(7.229687 194.494872)scale(0.1 -0.1)">
       <use xlink:href="#DejaVuSans-8722"/>
       <use x="83.789062" xlink:href="#DejaVuSans-48"/>
       <use x="147.412109" xlink:href="#DejaVuSans-46"/>
       <use x="179.199219" xlink:href="#DejaVuSans-48"/>
       <use x="242.822266" xlink:href="#DejaVuSans-48"/>
       <use x="306.445312" xlink:href="#DejaVuSans-48"/>
       <use x="370.068359" xlink:href="#DejaVuSans-51"/>
      </g>
     </g>
    </g>
    <g id="ytick_3">
     <g id="line2d_9">
      <g>
       <use style="stroke:#000000;stroke-width:0.8;" x="57.6" xlink:href="#m53ba80e994" y="131.864862"/>
      </g>
     </g>
     <g id="text_10">
      <!-- −0.0002 -->
      <g transform="translate(7.229687 135.664081)scale(0.1 -0.1)">
       <use xlink:href="#DejaVuSans-8722"/>
       <use x="83.789062" xlink:href="#DejaVuSans-48"/>
       <use x="147.412109" xlink:href="#DejaVuSans-46"/>
       <use x="179.199219" xlink:href="#DejaVuSans-48"/>
       <use x="242.822266" xlink:href="#DejaVuSans-48"/>
       <use x="306.445312" xlink:href="#DejaVuSans-48"/>
       <use x="370.068359" xlink:href="#DejaVuSans-50"/>
      </g>
     </g>
    </g>
    <g id="ytick_4">
     <g id="line2d_10">
      <g>
       <use style="stroke:#000000;stroke-width:0.8;" x="57.6" xlink:href="#m53ba80e994" y="73.034071"/>
      </g>
     </g>
     <g id="text_11">
      <!-- −0.0001 -->
      <g transform="translate(7.229687 76.833289)scale(0.1 -0.1)">
       <use xlink:href="#DejaVuSans-8722"/>
       <use x="83.789062" xlink:href="#DejaVuSans-48"/>
       <use x="147.412109" xlink:href="#DejaVuSans-46"/>
       <use x="179.199219" xlink:href="#DejaVuSans-48"/>
       <use x="242.822266" xlink:href="#DejaVuSans-48"/>
       <use x="306.445312" xlink:href="#DejaVuSans-48"/>
       <use x="370.068359" xlink:href="#DejaVuSans-49"/>
      </g>
     </g>
    </g>
    <g id="text_12">
     <!-- $\langle e \rangle$ -->
     <g transform="translate(5.15 181.528)rotate(-90)scale(0.1 -0.1)">
      <defs>
       <path d="M 8.9375 31.34375 
L 22.703125 75.875 
L 31 75.875 
L 17.234375 31.34375 
L 31 -13.1875 
L 22.703125 -13.1875 
z
" id="DejaVuSans-10216"/>
       <path d="M 48.09375 32.234375 
Q 48.25 33.015625 48.3125 33.84375 
Q 48.390625 34.671875 48.390625 35.5 
Q 48.390625 41.453125 44.890625 44.921875 
Q 41.40625 48.390625 35.40625 48.390625 
Q 28.71875 48.390625 23.578125 44.15625 
Q 18.453125 39.9375 15.828125 32.171875 
z
M 55.90625 25.203125 
L 14.109375 25.203125 
Q 13.8125 23.34375 13.71875 22.265625 
Q 13.625 21.1875 13.625 20.40625 
Q 13.625 13.625 17.796875 9.90625 
Q 21.96875 6.203125 29.59375 6.203125 
Q 35.453125 6.203125 40.671875 7.515625 
Q 45.90625 8.84375 50.390625 11.375 
L 48.6875 2.484375 
Q 43.84375 0.53125 38.6875 -0.4375 
Q 33.546875 -1.421875 28.21875 -1.421875 
Q 16.84375 -1.421875 10.71875 4.015625 
Q 4.59375 9.46875 4.59375 19.484375 
Q 4.59375 28.03125 7.640625 35.375 
Q 10.6875 42.71875 16.609375 48.484375 
Q 20.40625 52.09375 25.65625 54.046875 
Q 30.90625 56 36.8125 56 
Q 46.09375 56 51.578125 50.4375 
Q 57.078125 44.875 57.078125 35.5 
Q 57.078125 33.25 56.78125 30.6875 
Q 56.5 28.125 55.90625 25.203125 
z
" id="DejaVuSans-Oblique-101"/>
       <path d="M 30.078125 31.34375 
L 16.3125 -13.1875 
L 8.015625 -13.1875 
L 21.78125 31.34375 
L 8.015625 75.875 
L 16.3125 75.875 
z
" id="DejaVuSans-10217"/>
      </defs>
      <use transform="translate(0 0.125)" xlink:href="#DejaVuSans-10216"/>
      <use transform="translate(39.013672 0.125)" xlink:href="#DejaVuSans-Oblique-101"/>
      <use transform="translate(100.537109 0.125)" xlink:href="#DejaVuSans-10217"/>
     </g>
    </g>
    <g id="text_13">
     <!-- −1.997 -->
     <g transform="translate(57.6 38.472)scale(0.1 -0.1)">
      <defs>
       <path d="M 10.984375 1.515625 
L 10.984375 10.5 
Q 14.703125 8.734375 18.5 7.8125 
Q 22.3125 6.890625 25.984375 6.890625 
Q 35.75 6.890625 40.890625 13.453125 
Q 46.046875 20.015625 46.78125 33.40625 
Q 43.953125 29.203125 39.59375 26.953125 
Q 35.25 24.703125 29.984375 24.703125 
Q 19.046875 24.703125 12.671875 31.3125 
Q 6.296875 37.9375 6.296875 49.421875 
Q 6.296875 60.640625 12.9375 67.421875 
Q 19.578125 74.21875 30.609375 74.21875 
Q 43.265625 74.21875 49.921875 64.515625 
Q 56.59375 54.828125 56.59375 36.375 
Q 56.59375 19.140625 48.40625 8.859375 
Q 40.234375 -1.421875 26.421875 -1.421875 
Q 22.703125 -1.421875 18.890625 -0.6875 
Q 15.09375 0.046875 10.984375 1.515625 
z
M 30.609375 32.421875 
Q 37.25 32.421875 41.125 36.953125 
Q 45.015625 41.5 45.015625 49.421875 
Q 45.015625 57.28125 41.125 61.84375 
Q 37.25 66.40625 30.609375 66.40625 
Q 23.96875 66.40625 20.09375 61.84375 
Q 16.21875 57.28125 16.21875 49.421875 
Q 16.21875 41.5 20.09375 36.953125 
Q 23.96875 32.421875 30.609375 32.421875 
z
" id="DejaVuSans-57"/>
       <path d="M 8.203125 72.90625 
L 55.078125 72.90625 
L 55.078125 68.703125 
L 28.609375 0 
L 18.3125 0 
L 43.21875 64.59375 
L 8.203125 64.59375 
z
" id="DejaVuSans-55"/>
      </defs>
      <use xlink:href="#DejaVuSans-8722"/>
      <use x="83.789062" xlink:href="#DejaVuSans-49"/>
      <use x="147.412109" xlink:href="#DejaVuSans-46"/>
      <use x="179.199219" xlink:href="#DejaVuSans-57"/>
      <use x="242.822266" xlink:href="#DejaVuSans-57"/>
      <use x="306.445312" xlink:href="#DejaVuSans-55"/>
     </g>
    </g>
   </g>
   <g id="line2d_11">
    <path clip-path="url(#p8e54a9345a)" d="M 73.832727 227.464898 
L 74.468059 295.488 
L 75.103391 259.331576 
L 75.738723 198.968733 
L 77.009386 163.11872 
L 77.644718 132.915412 
L 78.28005 117.61678 
L 78.915382 131.047768 
L 79.550713 113.847932 
L 80.186045 111.474644 
L 80.821377 105.51357 
L 81.456709 104.712189 
L 82.727372 57.100731 
L 83.362704 53.960025 
L 83.998036 53.568 
L 84.633368 56.487911 
L 85.2687 61.035686 
L 85.904031 62.738682 
L 86.539363 65.50513 
L 87.174695 70.359944 
L 87.810027 61.203966 
L 88.445358 62.156502 
L 89.08069 67.150992 
L 89.716022 66.528743 
L 90.351354 66.088769 
L 90.986686 78.549457 
L 91.622017 77.471738 
L 92.257349 72.911506 
L 92.892681 74.813228 
L 93.528013 67.748492 
L 94.163345 75.931041 
L 94.798676 85.578872 
L 95.434008 87.426603 
L 96.06934 94.891344 
L 96.704672 87.344263 
L 97.340004 84.54865 
L 97.975335 89.815931 
L 98.610667 78.64138 
L 99.245999 84.244206 
L 99.881331 88.529681 
L 100.516663 90.905634 
L 101.151994 96.850513 
L 101.787326 90.683308 
L 102.422658 92.218024 
L 103.693321 87.128948 
L 104.328653 89.842868 
L 104.963985 91.56577 
L 105.599317 96.681742 
L 106.234649 96.439109 
L 106.86998 100.229436 
L 107.505312 105.854026 
L 108.140644 105.324153 
L 108.775976 105.338478 
L 109.411308 105.674839 
L 110.046639 104.287928 
L 110.681971 101.763938 
L 111.317303 102.326902 
L 111.952635 101.786414 
L 112.587967 104.110013 
L 113.223298 104.433838 
L 113.85863 107.103074 
L 114.493962 106.805208 
L 115.129294 109.246205 
L 115.764626 113.096083 
L 116.399957 112.831371 
L 117.035289 108.950695 
L 117.670621 112.061997 
L 118.305953 112.444486 
L 118.941284 113.582376 
L 119.576616 109.299627 
L 120.211948 110.449261 
L 120.84728 109.509161 
L 121.482612 107.384286 
L 122.117943 109.039279 
L 122.753275 103.439407 
L 123.388607 104.264657 
L 124.023939 108.194661 
L 124.659271 108.940827 
L 125.294602 112.359226 
L 125.929934 114.233345 
L 126.565266 114.136833 
L 127.200598 113.350466 
L 127.83593 114.891152 
L 128.471261 116.734529 
L 129.106593 115.569401 
L 129.741925 115.091476 
L 130.377257 113.48024 
L 131.012589 112.308472 
L 131.64792 113.24044 
L 132.283252 114.508197 
L 132.918584 114.223448 
L 133.553916 114.52526 
L 134.189247 111.41197 
L 134.824579 109.727502 
L 135.459911 108.865324 
L 136.095243 111.511785 
L 136.730575 111.862393 
L 137.365906 114.026317 
L 138.001238 115.246605 
L 138.63657 115.800629 
L 139.271902 116.662193 
L 139.907234 117.227201 
L 140.542565 118.718123 
L 141.177897 118.428624 
L 141.813229 117.565711 
L 142.448561 116.415033 
L 143.083893 118.293668 
L 143.719224 119.740949 
L 144.354556 120.046176 
L 144.989888 120.899167 
L 145.62522 120.318029 
L 146.260552 118.627934 
L 146.895883 120.738996 
L 147.531215 119.514167 
L 148.166547 117.499928 
L 148.801879 117.342555 
L 149.43721 116.299215 
L 150.072542 116.51902 
L 150.707874 117.759939 
L 151.978538 119.499721 
L 152.613869 118.804426 
L 153.249201 119.754357 
L 153.884533 120.283997 
L 154.519865 118.248751 
L 155.155197 116.872131 
L 155.790528 114.866157 
L 156.42586 117.409777 
L 157.061192 116.62791 
L 157.696524 116.051322 
L 158.331856 114.907106 
L 158.967187 114.433516 
L 159.602519 116.562367 
L 160.873183 116.970653 
L 161.508514 119.088211 
L 162.143846 118.102659 
L 162.779178 118.53927 
L 163.41451 117.675041 
L 164.685173 113.684513 
L 165.320505 114.773503 
L 165.955837 114.10985 
L 166.591169 115.406248 
L 167.226501 114.449159 
L 167.861832 115.602491 
L 168.497164 114.044035 
L 169.132496 115.257826 
L 169.767828 115.923459 
L 170.40316 114.417495 
L 171.038491 116.202119 
L 171.673823 117.038554 
L 172.309155 116.096513 
L 172.944487 115.986169 
L 173.579819 115.225615 
L 174.21515 113.457114 
L 174.850482 113.618124 
L 175.485814 113.069155 
L 176.121146 113.003601 
L 176.756477 113.999069 
L 177.391809 114.37705 
L 178.027141 115.107 
L 178.662473 114.919999 
L 179.933136 114.180606 
L 181.2038 114.410285 
L 181.839132 113.630757 
L 182.474464 114.698755 
L 183.109795 113.905318 
L 183.745127 112.571574 
L 184.380459 110.727799 
L 185.015791 110.576305 
L 185.651123 110.634259 
L 186.286454 110.443678 
L 186.921786 112.083419 
L 187.557118 111.784769 
L 188.19245 110.554952 
L 188.827782 110.752851 
L 189.463113 111.651824 
L 190.733777 112.406975 
L 191.369109 112.017377 
L 192.00444 113.244287 
L 192.639772 113.949634 
L 193.910436 113.267365 
L 194.545768 112.883461 
L 195.181099 113.288733 
L 195.816431 113.251623 
L 196.451763 113.461286 
L 197.087095 113.989352 
L 197.722427 113.198842 
L 198.357758 114.525457 
L 198.99309 113.108833 
L 200.263754 114.270778 
L 200.899086 113.992448 
L 201.534417 113.06158 
L 202.169749 113.770046 
L 203.440413 113.910709 
L 204.075745 114.265602 
L 204.711076 113.817735 
L 205.346408 113.816113 
L 205.98174 114.606188 
L 206.617072 114.495771 
L 207.252403 113.305978 
L 208.523067 113.117726 
L 209.158399 115.30152 
L 209.793731 116.028434 
L 211.064394 118.292436 
L 211.699726 118.472761 
L 212.97039 117.474717 
L 213.605721 118.421627 
L 214.241053 118.697497 
L 214.876385 118.426775 
L 215.511717 118.322618 
L 216.147049 117.091797 
L 217.417712 118.469194 
L 218.053044 118.447313 
L 218.688376 119.308727 
L 219.323708 119.155493 
L 219.959039 119.624364 
L 220.594371 119.61373 
L 221.229703 120.897212 
L 221.865035 121.148356 
L 222.500366 120.927967 
L 223.135698 119.743475 
L 223.77103 119.561904 
L 225.041694 120.464858 
L 225.677025 120.466396 
L 226.312357 119.47622 
L 226.947689 118.782912 
L 227.583021 119.033455 
L 228.218353 118.784655 
L 228.853684 117.637415 
L 230.124348 118.422502 
L 230.75968 120.166905 
L 231.395012 120.671654 
L 232.665675 119.632862 
L 233.301007 120.615224 
L 234.571671 121.905318 
L 235.207002 121.785763 
L 235.842334 122.054942 
L 236.477666 119.718135 
L 237.112998 120.021745 
L 238.383661 121.767462 
L 239.018993 122.271047 
L 239.654325 121.507724 
L 240.289657 121.617008 
L 240.924988 120.959438 
L 241.56032 119.987702 
L 242.195652 119.990884 
L 242.830984 120.173068 
L 243.466316 119.928577 
L 244.101647 118.783759 
L 245.372311 119.585834 
L 246.007643 119.75264 
L 246.642975 119.608447 
L 247.278306 119.599501 
L 247.913638 120.392858 
L 248.54897 119.635091 
L 249.184302 119.506679 
L 249.819634 119.564359 
L 250.454965 117.776574 
L 251.090297 117.695571 
L 251.725629 118.046954 
L 252.360961 117.978605 
L 252.996292 118.534387 
L 253.631624 119.500556 
L 254.266956 120.098704 
L 254.902288 118.867062 
L 255.53762 118.028352 
L 256.172951 119.046695 
L 256.808283 118.556685 
L 257.443615 118.67865 
L 258.078947 118.584973 
L 258.714279 118.227502 
L 259.984942 118.082648 
L 260.620274 119.064179 
L 261.890938 118.506608 
L 262.526269 119.094336 
L 263.161601 119.235426 
L 263.796933 118.67696 
L 265.067597 119.811368 
L 265.702928 119.450691 
L 266.33826 119.479432 
L 266.973592 119.89376 
L 267.608924 118.995626 
L 268.244255 118.354859 
L 268.879587 118.303218 
L 269.514919 118.692191 
L 270.150251 118.212797 
L 270.785583 118.599559 
L 271.420914 119.384532 
L 272.056246 119.40091 
L 272.691578 119.627964 
L 273.32691 119.491719 
L 273.962242 119.04217 
L 274.597573 119.198611 
L 275.232905 119.943764 
L 275.868237 119.935029 
L 276.503569 119.70803 
L 277.138901 120.043722 
L 277.774232 120.069014 
L 278.409564 118.090625 
L 279.044896 118.144486 
L 279.680228 118.752384 
L 280.31556 118.96179 
L 280.950891 119.574714 
L 281.586223 118.973206 
L 282.221555 119.235912 
L 282.856887 120.109846 
L 283.492218 119.434413 
L 284.12755 119.682281 
L 284.762882 120.403458 
L 286.668877 118.951853 
L 287.304209 117.811809 
L 287.939541 117.091893 
L 288.574873 116.842619 
L 289.210205 117.286938 
L 289.845536 117.911958 
L 290.480868 117.608716 
L 291.1162 116.964206 
L 291.751532 116.547906 
L 292.386864 117.796629 
L 293.022195 118.166724 
L 293.657527 117.750558 
L 294.928191 116.556635 
L 295.563523 116.043581 
L 296.198854 116.34007 
L 296.834186 116.290162 
L 297.469518 115.875969 
L 298.10485 115.983457 
L 298.740181 115.334238 
L 299.375513 115.349687 
L 300.646177 115.729531 
L 301.281509 116.143193 
L 301.91684 116.003018 
L 302.552172 115.649727 
L 304.458168 116.379353 
L 305.093499 116.814656 
L 305.728831 116.373557 
L 306.364163 116.606126 
L 307.634827 116.599148 
L 308.270158 117.067725 
L 308.90549 116.126436 
L 310.176154 116.74314 
L 310.811486 116.301837 
L 311.446817 116.529636 
L 312.082149 116.560642 
L 312.717481 116.747533 
L 313.988144 117.525827 
L 314.623476 117.282954 
L 315.258808 117.601097 
L 315.89414 116.983906 
L 316.529472 116.792352 
L 317.164803 116.190056 
L 317.800135 116.44088 
L 318.435467 116.128387 
L 319.070799 115.979028 
L 319.706131 116.361129 
L 320.341462 116.561672 
L 320.976794 116.544343 
L 321.612126 115.906446 
L 322.247458 115.984675 
L 322.88279 116.483529 
L 324.788785 115.940808 
L 325.424117 116.314343 
L 326.059448 116.067021 
L 327.330112 116.669972 
L 327.965444 117.322213 
L 329.871439 116.692998 
L 330.506771 117.602027 
L 331.142103 118.108093 
L 331.777435 118.105756 
L 332.412766 118.247624 
L 333.048098 117.247064 
L 333.68343 117.722155 
L 334.318762 117.980223 
L 334.954094 118.049621 
L 335.589425 117.771469 
L 336.224757 117.965377 
L 336.860089 117.98115 
L 337.495421 118.659753 
L 338.130753 118.964765 
L 338.766084 118.53821 
L 339.401416 118.499812 
L 340.036748 118.155186 
L 340.67208 118.266355 
L 341.307411 118.211448 
L 341.942743 118.304573 
L 342.578075 118.900234 
L 343.213407 118.904785 
L 343.848739 118.106605 
L 344.48407 118.207714 
L 345.119402 118.944081 
L 345.754734 118.69993 
L 347.025398 119.042548 
L 347.660729 119.344594 
L 348.296061 119.152724 
L 348.931393 119.376874 
L 349.566725 119.997271 
L 350.202057 120.420856 
L 350.837388 120.497528 
L 352.108052 119.963018 
L 352.743384 120.324333 
L 353.378716 120.03367 
L 355.284711 120.850651 
L 355.920043 120.767986 
L 356.555374 121.023706 
L 357.826038 121.851809 
L 358.46137 122.103405 
L 359.096702 121.863627 
L 359.732033 122.244527 
L 360.367365 122.184463 
L 361.002697 122.506156 
L 361.638029 123.14229 
L 362.273361 122.183641 
L 362.908692 121.479163 
L 363.544024 121.727171 
L 364.814688 121.40285 
L 366.085351 122.046437 
L 366.720683 122.011978 
L 367.991347 122.133691 
L 368.626679 122.146711 
L 369.26201 121.844059 
L 369.897342 122.66074 
L 370.532674 122.688264 
L 371.168006 122.966548 
L 371.803337 121.819817 
L 372.438669 122.028503 
L 373.074001 121.971442 
L 374.344665 122.269175 
L 374.979996 121.88685 
L 375.615328 122.263145 
L 376.25066 122.152231 
L 376.885992 121.880243 
L 377.521324 121.85503 
L 378.791987 121.292749 
L 380.062651 121.054856 
L 380.697983 120.841685 
L 381.333314 120.295817 
L 381.968646 119.911075 
L 383.874642 119.728755 
L 385.145305 118.804666 
L 385.780637 118.928365 
L 386.415969 118.544401 
L 387.0513 118.325741 
L 388.321964 118.246898 
L 388.957296 117.867395 
L 389.592628 118.279438 
L 390.863291 117.679287 
L 391.498623 117.619532 
L 392.133955 117.845672 
L 393.404618 117.930485 
L 394.03995 117.630432 
L 395.310614 118.339292 
L 395.945946 118.054681 
L 398.487273 118.82327 
L 398.487273 118.82327 
" style="fill:none;stroke:#1f77b4;stroke-linecap:square;stroke-width:1.5;"/>
   </g>
   <g id="patch_3">
    <path d="M 57.6 307.584 
L 57.6 41.472 
" style="fill:none;stroke:#000000;stroke-linecap:square;stroke-linejoin:miter;stroke-width:0.8;"/>
   </g>
   <g id="patch_4">
    <path d="M 414.72 307.584 
L 414.72 41.472 
" style="fill:none;stroke:#000000;stroke-linecap:square;stroke-linejoin:miter;stroke-width:0.8;"/>
   </g>
   <g id="patch_5">
    <path d="M 57.6 307.584 
L 414.72 307.584 
" style="fill:none;stroke:#000000;stroke-linecap:square;stroke-linejoin:miter;stroke-width:0.8;"/>
   </g>
   <g id="patch_6">
    <path d="M 57.6 41.472 
L 414.72 41.472 
" style="fill:none;stroke:#000000;stroke-linecap:square;stroke-linejoin:miter;stroke-width:0.8;"/>
   </g>
   <g id="legend_1">
    <g id="line2d_12">
     <path d="M 313.22 54.672 
L 333.22 54.672 
" style="fill:none;stroke:#1f77b4;stroke-linecap:square;stroke-width:1.5;"/>
    </g>
    <g id="line2d_13"/>
    <g id="text_14">
     <!-- $\beta=1.0$,L=16 -->
     <g transform="translate(341.22 58.172)scale(0.1 -0.1)">
      <defs>
       <path d="M 13.625 3.375 
L 8.9375 -20.796875 
L -0.09375 -20.796875 
L 14.5 54.34375 
Q 18.84375 76.609375 39.65625 76.609375 
Q 60.75 76.609375 57.171875 57.8125 
Q 54.734375 44.4375 45.21875 39.546875 
Q 58.015625 35.15625 55.515625 22.125 
Q 51.125 -1.078125 27.484375 -1.03125 
Q 17.140625 -0.984375 13.625 3.375 
z
M 15.921875 15.09375 
Q 19.671875 6.59375 29.296875 6.640625 
Q 43.359375 6.640625 46.34375 21.96875 
Q 49.03125 35.75 26.171875 34.671875 
L 27.78125 42.96875 
Q 45.453125 42.671875 48.53125 58.59375 
Q 50.640625 69.34375 39.203125 69.28125 
Q 26.421875 69.28125 23.484375 54.046875 
z
" id="DejaVuSans-Oblique-946"/>
       <path d="M 10.59375 45.40625 
L 73.1875 45.40625 
L 73.1875 37.203125 
L 10.59375 37.203125 
z
M 10.59375 25.484375 
L 73.1875 25.484375 
L 73.1875 17.1875 
L 10.59375 17.1875 
z
" id="DejaVuSans-61"/>
       <path d="M 11.71875 12.40625 
L 22.015625 12.40625 
L 22.015625 4 
L 14.015625 -11.625 
L 7.71875 -11.625 
L 11.71875 4 
z
" id="DejaVuSans-44"/>
       <path d="M 9.8125 72.90625 
L 19.671875 72.90625 
L 19.671875 8.296875 
L 55.171875 8.296875 
L 55.171875 0 
L 9.8125 0 
z
" id="DejaVuSans-76"/>
       <path d="M 33.015625 40.375 
Q 26.375 40.375 22.484375 35.828125 
Q 18.609375 31.296875 18.609375 23.390625 
Q 18.609375 15.53125 22.484375 10.953125 
Q 26.375 6.390625 33.015625 6.390625 
Q 39.65625 6.390625 43.53125 10.953125 
Q 47.40625 15.53125 47.40625 23.390625 
Q 47.40625 31.296875 43.53125 35.828125 
Q 39.65625 40.375 33.015625 40.375 
z
M 52.59375 71.296875 
L 52.59375 62.3125 
Q 48.875 64.0625 45.09375 64.984375 
Q 41.3125 65.921875 37.59375 65.921875 
Q 27.828125 65.921875 22.671875 59.328125 
Q 17.53125 52.734375 16.796875 39.40625 
Q 19.671875 43.65625 24.015625 45.921875 
Q 28.375 48.1875 33.59375 48.1875 
Q 44.578125 48.1875 50.953125 41.515625 
Q 57.328125 34.859375 57.328125 23.390625 
Q 57.328125 12.15625 50.6875 5.359375 
Q 44.046875 -1.421875 33.015625 -1.421875 
Q 20.359375 -1.421875 13.671875 8.265625 
Q 6.984375 17.96875 6.984375 36.375 
Q 6.984375 53.65625 15.1875 63.9375 
Q 23.390625 74.21875 37.203125 74.21875 
Q 40.921875 74.21875 44.703125 73.484375 
Q 48.484375 72.75 52.59375 71.296875 
z
" id="DejaVuSans-54"/>
      </defs>
      <use transform="translate(0 0.390625)" xlink:href="#DejaVuSans-Oblique-946"/>
      <use transform="translate(83.300781 0.390625)" xlink:href="#DejaVuSans-61"/>
      <use transform="translate(186.572266 0.390625)" xlink:href="#DejaVuSans-49"/>
      <use transform="translate(250.195312 0.390625)" xlink:href="#DejaVuSans-46"/>
      <use transform="translate(281.982422 0.390625)" xlink:href="#DejaVuSans-48"/>
      <use transform="translate(345.605469 0.390625)" xlink:href="#DejaVuSans-44"/>
      <use transform="translate(377.392578 0.390625)" xlink:href="#DejaVuSans-76"/>
      <use transform="translate(433.105469 0.390625)" xlink:href="#DejaVuSans-61"/>
      <use transform="translate(516.894531 0.390625)" xlink:href="#DejaVuSans-49"/>
      <use transform="translate(580.517578 0.390625)" xlink:href="#DejaVuSans-54"/>
     </g>
    </g>
   </g>
  </g>
 </g>
 <defs>
  <clipPath id="p8e54a9345a">
   <rect height="266.112" width="357.12" x="57.6" y="41.472"/>
  </clipPath>
 </defs>
</svg>
