<?xml version="1.0" encoding="utf-8" standalone="no"?>
<!DOCTYPE svg PUBLIC "-//W3C//DTD SVG 1.1//EN"
  "http://www.w3.org/Graphics/SVG/1.1/DTD/svg11.dtd">
<!-- Created with matplotlib (https://matplotlib.org/) -->
<svg height="345.6pt" version="1.1" viewBox="0 0 460.8 345.6" width="460.8pt" xmlns="http://www.w3.org/2000/svg" xmlns:xlink="http://www.w3.org/1999/xlink">
 <metadata>
  <rdf:RDF xmlns:cc="http://creativecommons.org/ns#" xmlns:dc="http://purl.org/dc/elements/1.1/" xmlns:rdf="http://www.w3.org/1999/02/22-rdf-syntax-ns#">
   <cc:Work>
    <dc:type rdf:resource="http://purl.org/dc/dcmitype/StillImage"/>
    <dc:date>2021-12-06T03:19:32.007130</dc:date>
    <dc:format>image/svg+xml</dc:format>
    <dc:creator>
     <cc:Agent>
      <dc:title>Matplotlib v3.3.2, https://matplotlib.org/</dc:title>
     </cc:Agent>
    </dc:creator>
   </cc:Work>
  </rdf:RDF>
 </metadata>
 <defs>
  <style type="text/css">*{stroke-linecap:butt;stroke-linejoin:round;}</style>
 </defs>
 <g id="figure_1">
  <g id="patch_1">
   <path d="M 0 345.6 
L 460.8 345.6 
L 460.8 0 
L 0 0 
z
" style="fill:#ffffff;"/>
  </g>
  <g id="axes_1">
   <g id="patch_2">
    <path d="M 57.6 307.584 
L 414.72 307.584 
L 414.72 41.472 
L 57.6 41.472 
z
" style="fill:#ffffff;"/>
   </g>
   <g id="line2d_1">
    <path clip-path="url(#p948178f340)" d="M 73.832727 53.568 
L 121.604717 53.674919 
L 132.329042 53.941032 
L 140.45353 54.361844 
L 147.2781 54.937997 
L 153.127731 55.650668 
L 158.327404 56.500908 
L 163.202097 57.528137 
L 167.42683 58.638146 
L 171.326585 59.881445 
L 174.90136 61.241933 
L 178.151155 62.697453 
L 181.40095 64.402328 
L 184.325766 66.192848 
L 186.925602 68.029996 
L 189.525438 70.147028 
L 191.800295 72.278465 
L 194.075152 74.73052 
L 196.025029 77.147633 
L 197.974906 79.929868 
L 199.599803 82.599244 
L 201.224701 85.676446 
L 202.849599 89.28612 
L 204.149517 92.684813 
L 205.449435 96.705185 
L 206.749353 101.60826 
L 207.724292 106.138953 
L 208.69923 111.80547 
L 209.349189 116.567103 
L 209.999148 122.626271 
L 210.649107 131.033392 
L 210.974087 136.937471 
L 211.299066 145.269228 
L 211.624046 160.236976 
L 211.949025 284.103828 
L 398.487273 284.103828 
L 398.487273 284.103828 
" style="fill:none;stroke:#ffe4c4;stroke-linecap:square;stroke-width:1.5;"/>
   </g>
   <g id="LineCollection_1">
    <path clip-path="url(#p948178f340)" d="M 73.832727 53.568 
L 73.832727 53.568 
" style="fill:none;stroke:#ff8c00;stroke-opacity:0.5;stroke-width:1.5;"/>
    <path clip-path="url(#p948178f340)" d="M 90.919809 53.568079 
L 90.919809 53.568037 
" style="fill:none;stroke:#ff8c00;stroke-opacity:0.5;stroke-width:1.5;"/>
    <path clip-path="url(#p948178f340)" d="M 108.00689 53.579473 
L 108.00689 53.578999 
" style="fill:none;stroke:#ff8c00;stroke-opacity:0.5;stroke-width:1.5;"/>
    <path clip-path="url(#p948178f340)" d="M 125.093971 53.734846 
L 125.093971 53.733085 
" style="fill:none;stroke:#ff8c00;stroke-opacity:0.5;stroke-width:1.5;"/>
    <path clip-path="url(#p948178f340)" d="M 142.181053 54.488737 
L 142.181053 54.483899 
" style="fill:none;stroke:#ff8c00;stroke-opacity:0.5;stroke-width:1.5;"/>
    <path clip-path="url(#p948178f340)" d="M 159.268134 56.68341 
L 159.268134 56.672689 
" style="fill:none;stroke:#ff8c00;stroke-opacity:0.5;stroke-width:1.5;"/>
    <path clip-path="url(#p948178f340)" d="M 176.355215 61.876536 
L 176.355215 61.848934 
" style="fill:none;stroke:#ff8c00;stroke-opacity:0.5;stroke-width:1.5;"/>
    <path clip-path="url(#p948178f340)" d="M 193.442297 74.262733 
L 193.442297 74.128899 
" style="fill:none;stroke:#ff8c00;stroke-opacity:0.5;stroke-width:1.5;"/>
    <path clip-path="url(#p948178f340)" d="M 210.529378 295.488 
L 210.529378 275.648779 
" style="fill:none;stroke:#ff8c00;stroke-opacity:0.5;stroke-width:1.5;"/>
    <path clip-path="url(#p948178f340)" d="M 227.616459 285.187237 
L 227.616459 283.099451 
" style="fill:none;stroke:#ff8c00;stroke-opacity:0.5;stroke-width:1.5;"/>
    <path clip-path="url(#p948178f340)" d="M 244.703541 285.141339 
L 244.703541 284.110592 
" style="fill:none;stroke:#ff8c00;stroke-opacity:0.5;stroke-width:1.5;"/>
    <path clip-path="url(#p948178f340)" d="M 261.790622 284.362596 
L 261.790622 283.872755 
" style="fill:none;stroke:#ff8c00;stroke-opacity:0.5;stroke-width:1.5;"/>
    <path clip-path="url(#p948178f340)" d="M 278.877703 284.215152 
L 278.877703 283.880426 
" style="fill:none;stroke:#ff8c00;stroke-opacity:0.5;stroke-width:1.5;"/>
    <path clip-path="url(#p948178f340)" d="M 295.964785 284.350556 
L 295.964785 284.096736 
" style="fill:none;stroke:#ff8c00;stroke-opacity:0.5;stroke-width:1.5;"/>
    <path clip-path="url(#p948178f340)" d="M 313.051866 284.377131 
L 313.051866 284.178322 
" style="fill:none;stroke:#ff8c00;stroke-opacity:0.5;stroke-width:1.5;"/>
    <path clip-path="url(#p948178f340)" d="M 330.138947 284.271212 
L 330.138947 284.111782 
" style="fill:none;stroke:#ff8c00;stroke-opacity:0.5;stroke-width:1.5;"/>
    <path clip-path="url(#p948178f340)" d="M 347.226029 284.206066 
L 347.226029 284.06703 
" style="fill:none;stroke:#ff8c00;stroke-opacity:0.5;stroke-width:1.5;"/>
    <path clip-path="url(#p948178f340)" d="M 364.31311 284.182529 
L 364.31311 284.042643 
" style="fill:none;stroke:#ff8c00;stroke-opacity:0.5;stroke-width:1.5;"/>
    <path clip-path="url(#p948178f340)" d="M 381.400191 284.146325 
L 381.400191 284.03611 
" style="fill:none;stroke:#ff8c00;stroke-opacity:0.5;stroke-width:1.5;"/>
    <path clip-path="url(#p948178f340)" d="M 398.487273 284.136167 
L 398.487273 284.025323 
" style="fill:none;stroke:#ff8c00;stroke-opacity:0.5;stroke-width:1.5;"/>
   </g>
   <g id="line2d_2">
    <defs>
     <path d="M 5 0 
L -5 -0 
" id="m5603b794c0" style="stroke:#ff8c00;stroke-opacity:0.5;"/>
    </defs>
    <g clip-path="url(#p948178f340)">
     <use style="fill:#ff8c00;fill-opacity:0.5;stroke:#ff8c00;stroke-opacity:0.5;" x="73.832727" xlink:href="#m5603b794c0" y="53.568"/>
     <use style="fill:#ff8c00;fill-opacity:0.5;stroke:#ff8c00;stroke-opacity:0.5;" x="90.919809" xlink:href="#m5603b794c0" y="53.568079"/>
     <use style="fill:#ff8c00;fill-opacity:0.5;stroke:#ff8c00;stroke-opacity:0.5;" x="108.00689" xlink:href="#m5603b794c0" y="53.579473"/>
     <use style="fill:#ff8c00;fill-opacity:0.5;stroke:#ff8c00;stroke-opacity:0.5;" x="125.093971" xlink:href="#m5603b794c0" y="53.734846"/>
     <use style="fill:#ff8c00;fill-opacity:0.5;stroke:#ff8c00;stroke-opacity:0.5;" x="142.181053" xlink:href="#m5603b794c0" y="54.488737"/>
     <use style="fill:#ff8c00;fill-opacity:0.5;stroke:#ff8c00;stroke-opacity:0.5;" x="159.268134" xlink:href="#m5603b794c0" y="56.68341"/>
     <use style="fill:#ff8c00;fill-opacity:0.5;stroke:#ff8c00;stroke-opacity:0.5;" x="176.355215" xlink:href="#m5603b794c0" y="61.876536"/>
     <use style="fill:#ff8c00;fill-opacity:0.5;stroke:#ff8c00;stroke-opacity:0.5;" x="193.442297" xlink:href="#m5603b794c0" y="74.262733"/>
     <use style="fill:#ff8c00;fill-opacity:0.5;stroke:#ff8c00;stroke-opacity:0.5;" x="210.529378" xlink:href="#m5603b794c0" y="295.488"/>
     <use style="fill:#ff8c00;fill-opacity:0.5;stroke:#ff8c00;stroke-opacity:0.5;" x="227.616459" xlink:href="#m5603b794c0" y="285.187237"/>
     <use style="fill:#ff8c00;fill-opacity:0.5;stroke:#ff8c00;stroke-opacity:0.5;" x="244.703541" xlink:href="#m5603b794c0" y="285.141339"/>
     <use style="fill:#ff8c00;fill-opacity:0.5;stroke:#ff8c00;stroke-opacity:0.5;" x="261.790622" xlink:href="#m5603b794c0" y="284.362596"/>
     <use style="fill:#ff8c00;fill-opacity:0.5;stroke:#ff8c00;stroke-opacity:0.5;" x="278.877703" xlink:href="#m5603b794c0" y="284.215152"/>
     <use style="fill:#ff8c00;fill-opacity:0.5;stroke:#ff8c00;stroke-opacity:0.5;" x="295.964785" xlink:href="#m5603b794c0" y="284.350556"/>
     <use style="fill:#ff8c00;fill-opacity:0.5;stroke:#ff8c00;stroke-opacity:0.5;" x="313.051866" xlink:href="#m5603b794c0" y="284.377131"/>
     <use style="fill:#ff8c00;fill-opacity:0.5;stroke:#ff8c00;stroke-opacity:0.5;" x="330.138947" xlink:href="#m5603b794c0" y="284.271212"/>
     <use style="fill:#ff8c00;fill-opacity:0.5;stroke:#ff8c00;stroke-opacity:0.5;" x="347.226029" xlink:href="#m5603b794c0" y="284.206066"/>
     <use style="fill:#ff8c00;fill-opacity:0.5;stroke:#ff8c00;stroke-opacity:0.5;" x="364.31311" xlink:href="#m5603b794c0" y="284.182529"/>
     <use style="fill:#ff8c00;fill-opacity:0.5;stroke:#ff8c00;stroke-opacity:0.5;" x="381.400191" xlink:href="#m5603b794c0" y="284.146325"/>
     <use style="fill:#ff8c00;fill-opacity:0.5;stroke:#ff8c00;stroke-opacity:0.5;" x="398.487273" xlink:href="#m5603b794c0" y="284.136167"/>
    </g>
   </g>
   <g id="line2d_3">
    <g clip-path="url(#p948178f340)">
     <use style="fill:#ff8c00;fill-opacity:0.5;stroke:#ff8c00;stroke-opacity:0.5;" x="73.832727" xlink:href="#m5603b794c0" y="53.568"/>
     <use style="fill:#ff8c00;fill-opacity:0.5;stroke:#ff8c00;stroke-opacity:0.5;" x="90.919809" xlink:href="#m5603b794c0" y="53.568037"/>
     <use style="fill:#ff8c00;fill-opacity:0.5;stroke:#ff8c00;stroke-opacity:0.5;" x="108.00689" xlink:href="#m5603b794c0" y="53.578999"/>
     <use style="fill:#ff8c00;fill-opacity:0.5;stroke:#ff8c00;stroke-opacity:0.5;" x="125.093971" xlink:href="#m5603b794c0" y="53.733085"/>
     <use style="fill:#ff8c00;fill-opacity:0.5;stroke:#ff8c00;stroke-opacity:0.5;" x="142.181053" xlink:href="#m5603b794c0" y="54.483899"/>
     <use style="fill:#ff8c00;fill-opacity:0.5;stroke:#ff8c00;stroke-opacity:0.5;" x="159.268134" xlink:href="#m5603b794c0" y="56.672689"/>
     <use style="fill:#ff8c00;fill-opacity:0.5;stroke:#ff8c00;stroke-opacity:0.5;" x="176.355215" xlink:href="#m5603b794c0" y="61.848934"/>
     <use style="fill:#ff8c00;fill-opacity:0.5;stroke:#ff8c00;stroke-opacity:0.5;" x="193.442297" xlink:href="#m5603b794c0" y="74.128899"/>
     <use style="fill:#ff8c00;fill-opacity:0.5;stroke:#ff8c00;stroke-opacity:0.5;" x="210.529378" xlink:href="#m5603b794c0" y="275.648779"/>
     <use style="fill:#ff8c00;fill-opacity:0.5;stroke:#ff8c00;stroke-opacity:0.5;" x="227.616459" xlink:href="#m5603b794c0" y="283.099451"/>
     <use style="fill:#ff8c00;fill-opacity:0.5;stroke:#ff8c00;stroke-opacity:0.5;" x="244.703541" xlink:href="#m5603b794c0" y="284.110592"/>
     <use style="fill:#ff8c00;fill-opacity:0.5;stroke:#ff8c00;stroke-opacity:0.5;" x="261.790622" xlink:href="#m5603b794c0" y="283.872755"/>
     <use style="fill:#ff8c00;fill-opacity:0.5;stroke:#ff8c00;stroke-opacity:0.5;" x="278.877703" xlink:href="#m5603b794c0" y="283.880426"/>
     <use style="fill:#ff8c00;fill-opacity:0.5;stroke:#ff8c00;stroke-opacity:0.5;" x="295.964785" xlink:href="#m5603b794c0" y="284.096736"/>
     <use style="fill:#ff8c00;fill-opacity:0.5;stroke:#ff8c00;stroke-opacity:0.5;" x="313.051866" xlink:href="#m5603b794c0" y="284.178322"/>
     <use style="fill:#ff8c00;fill-opacity:0.5;stroke:#ff8c00;stroke-opacity:0.5;" x="330.138947" xlink:href="#m5603b794c0" y="284.111782"/>
     <use style="fill:#ff8c00;fill-opacity:0.5;stroke:#ff8c00;stroke-opacity:0.5;" x="347.226029" xlink:href="#m5603b794c0" y="284.06703"/>
     <use style="fill:#ff8c00;fill-opacity:0.5;stroke:#ff8c00;stroke-opacity:0.5;" x="364.31311" xlink:href="#m5603b794c0" y="284.042643"/>
     <use style="fill:#ff8c00;fill-opacity:0.5;stroke:#ff8c00;stroke-opacity:0.5;" x="381.400191" xlink:href="#m5603b794c0" y="284.03611"/>
     <use style="fill:#ff8c00;fill-opacity:0.5;stroke:#ff8c00;stroke-opacity:0.5;" x="398.487273" xlink:href="#m5603b794c0" y="284.025323"/>
    </g>
   </g>
   <g id="line2d_4">
    <defs>
     <path d="M -3 3 
L 3 3 
L 3 -3 
L -3 -3 
z
" id="m098c42a9d0" style="stroke:#ff8c00;stroke-linejoin:miter;stroke-opacity:0.5;"/>
    </defs>
    <g clip-path="url(#p948178f340)">
     <use style="fill:#ff8c00;fill-opacity:0.5;stroke:#ff8c00;stroke-linejoin:miter;stroke-opacity:0.5;" x="73.832727" xlink:href="#m098c42a9d0" y="53.568"/>
     <use style="fill:#ff8c00;fill-opacity:0.5;stroke:#ff8c00;stroke-linejoin:miter;stroke-opacity:0.5;" x="90.919809" xlink:href="#m098c42a9d0" y="53.568058"/>
     <use style="fill:#ff8c00;fill-opacity:0.5;stroke:#ff8c00;stroke-linejoin:miter;stroke-opacity:0.5;" x="108.00689" xlink:href="#m098c42a9d0" y="53.579236"/>
     <use style="fill:#ff8c00;fill-opacity:0.5;stroke:#ff8c00;stroke-linejoin:miter;stroke-opacity:0.5;" x="125.093971" xlink:href="#m098c42a9d0" y="53.733966"/>
     <use style="fill:#ff8c00;fill-opacity:0.5;stroke:#ff8c00;stroke-linejoin:miter;stroke-opacity:0.5;" x="142.181053" xlink:href="#m098c42a9d0" y="54.486318"/>
     <use style="fill:#ff8c00;fill-opacity:0.5;stroke:#ff8c00;stroke-linejoin:miter;stroke-opacity:0.5;" x="159.268134" xlink:href="#m098c42a9d0" y="56.67805"/>
     <use style="fill:#ff8c00;fill-opacity:0.5;stroke:#ff8c00;stroke-linejoin:miter;stroke-opacity:0.5;" x="176.355215" xlink:href="#m098c42a9d0" y="61.862735"/>
     <use style="fill:#ff8c00;fill-opacity:0.5;stroke:#ff8c00;stroke-linejoin:miter;stroke-opacity:0.5;" x="193.442297" xlink:href="#m098c42a9d0" y="74.195816"/>
     <use style="fill:#ff8c00;fill-opacity:0.5;stroke:#ff8c00;stroke-linejoin:miter;stroke-opacity:0.5;" x="210.529378" xlink:href="#m098c42a9d0" y="285.568389"/>
     <use style="fill:#ff8c00;fill-opacity:0.5;stroke:#ff8c00;stroke-linejoin:miter;stroke-opacity:0.5;" x="227.616459" xlink:href="#m098c42a9d0" y="284.143344"/>
     <use style="fill:#ff8c00;fill-opacity:0.5;stroke:#ff8c00;stroke-linejoin:miter;stroke-opacity:0.5;" x="244.703541" xlink:href="#m098c42a9d0" y="284.625965"/>
     <use style="fill:#ff8c00;fill-opacity:0.5;stroke:#ff8c00;stroke-linejoin:miter;stroke-opacity:0.5;" x="261.790622" xlink:href="#m098c42a9d0" y="284.117676"/>
     <use style="fill:#ff8c00;fill-opacity:0.5;stroke:#ff8c00;stroke-linejoin:miter;stroke-opacity:0.5;" x="278.877703" xlink:href="#m098c42a9d0" y="284.047789"/>
     <use style="fill:#ff8c00;fill-opacity:0.5;stroke:#ff8c00;stroke-linejoin:miter;stroke-opacity:0.5;" x="295.964785" xlink:href="#m098c42a9d0" y="284.223646"/>
     <use style="fill:#ff8c00;fill-opacity:0.5;stroke:#ff8c00;stroke-linejoin:miter;stroke-opacity:0.5;" x="313.051866" xlink:href="#m098c42a9d0" y="284.277726"/>
     <use style="fill:#ff8c00;fill-opacity:0.5;stroke:#ff8c00;stroke-linejoin:miter;stroke-opacity:0.5;" x="330.138947" xlink:href="#m098c42a9d0" y="284.191497"/>
     <use style="fill:#ff8c00;fill-opacity:0.5;stroke:#ff8c00;stroke-linejoin:miter;stroke-opacity:0.5;" x="347.226029" xlink:href="#m098c42a9d0" y="284.136548"/>
     <use style="fill:#ff8c00;fill-opacity:0.5;stroke:#ff8c00;stroke-linejoin:miter;stroke-opacity:0.5;" x="364.31311" xlink:href="#m098c42a9d0" y="284.112586"/>
     <use style="fill:#ff8c00;fill-opacity:0.5;stroke:#ff8c00;stroke-linejoin:miter;stroke-opacity:0.5;" x="381.400191" xlink:href="#m098c42a9d0" y="284.091217"/>
     <use style="fill:#ff8c00;fill-opacity:0.5;stroke:#ff8c00;stroke-linejoin:miter;stroke-opacity:0.5;" x="398.487273" xlink:href="#m098c42a9d0" y="284.080745"/>
    </g>
   </g>
   <g id="matplotlib.axis_1">
    <g id="xtick_1">
     <g id="line2d_5">
      <defs>
       <path d="M 0 0 
L 0 3.5 
" id="m801dfbe34e" style="stroke:#000000;stroke-width:0.8;"/>
      </defs>
      <g>
       <use style="stroke:#000000;stroke-width:0.8;" x="125.093971" xlink:href="#m801dfbe34e" y="307.584"/>
      </g>
     </g>
     <g id="text_1">
      <!-- 1 -->
      <g transform="translate(121.912721 322.182437)scale(0.1 -0.1)">
       <defs>
        <path d="M 12.40625 8.296875 
L 28.515625 8.296875 
L 28.515625 63.921875 
L 10.984375 60.40625 
L 10.984375 69.390625 
L 28.421875 72.90625 
L 38.28125 72.90625 
L 38.28125 8.296875 
L 54.390625 8.296875 
L 54.390625 0 
L 12.40625 0 
z
" id="DejaVuSans-49"/>
       </defs>
       <use xlink:href="#DejaVuSans-49"/>
      </g>
     </g>
    </g>
    <g id="xtick_2">
     <g id="line2d_6">
      <g>
       <use style="stroke:#000000;stroke-width:0.8;" x="193.442297" xlink:href="#m801dfbe34e" y="307.584"/>
      </g>
     </g>
     <g id="text_2">
      <!-- 2 -->
      <g transform="translate(190.261047 322.182437)scale(0.1 -0.1)">
       <defs>
        <path d="M 19.1875 8.296875 
L 53.609375 8.296875 
L 53.609375 0 
L 7.328125 0 
L 7.328125 8.296875 
Q 12.9375 14.109375 22.625 23.890625 
Q 32.328125 33.6875 34.8125 36.53125 
Q 39.546875 41.84375 41.421875 45.53125 
Q 43.3125 49.21875 43.3125 52.78125 
Q 43.3125 58.59375 39.234375 62.25 
Q 35.15625 65.921875 28.609375 65.921875 
Q 23.96875 65.921875 18.8125 64.3125 
Q 13.671875 62.703125 7.8125 59.421875 
L 7.8125 69.390625 
Q 13.765625 71.78125 18.9375 73 
Q 24.125 74.21875 28.421875 74.21875 
Q 39.75 74.21875 46.484375 68.546875 
Q 53.21875 62.890625 53.21875 53.421875 
Q 53.21875 48.921875 51.53125 44.890625 
Q 49.859375 40.875 45.40625 35.40625 
Q 44.1875 33.984375 37.640625 27.21875 
Q 31.109375 20.453125 19.1875 8.296875 
z
" id="DejaVuSans-50"/>
       </defs>
       <use xlink:href="#DejaVuSans-50"/>
      </g>
     </g>
    </g>
    <g id="xtick_3">
     <g id="line2d_7">
      <g>
       <use style="stroke:#000000;stroke-width:0.8;" x="261.790622" xlink:href="#m801dfbe34e" y="307.584"/>
      </g>
     </g>
     <g id="text_3">
      <!-- 3 -->
      <g transform="translate(258.609372 322.182437)scale(0.1 -0.1)">
       <defs>
        <path d="M 40.578125 39.3125 
Q 47.65625 37.796875 51.625 33 
Q 55.609375 28.21875 55.609375 21.1875 
Q 55.609375 10.40625 48.1875 4.484375 
Q 40.765625 -1.421875 27.09375 -1.421875 
Q 22.515625 -1.421875 17.65625 -0.515625 
Q 12.796875 0.390625 7.625 2.203125 
L 7.625 11.71875 
Q 11.71875 9.328125 16.59375 8.109375 
Q 21.484375 6.890625 26.8125 6.890625 
Q 36.078125 6.890625 40.9375 10.546875 
Q 45.796875 14.203125 45.796875 21.1875 
Q 45.796875 27.640625 41.28125 31.265625 
Q 36.765625 34.90625 28.71875 34.90625 
L 20.21875 34.90625 
L 20.21875 43.015625 
L 29.109375 43.015625 
Q 36.375 43.015625 40.234375 45.921875 
Q 44.09375 48.828125 44.09375 54.296875 
Q 44.09375 59.90625 40.109375 62.90625 
Q 36.140625 65.921875 28.71875 65.921875 
Q 24.65625 65.921875 20.015625 65.03125 
Q 15.375 64.15625 9.8125 62.3125 
L 9.8125 71.09375 
Q 15.4375 72.65625 20.34375 73.4375 
Q 25.25 74.21875 29.59375 74.21875 
Q 40.828125 74.21875 47.359375 69.109375 
Q 53.90625 64.015625 53.90625 55.328125 
Q 53.90625 49.265625 50.4375 45.09375 
Q 46.96875 40.921875 40.578125 39.3125 
z
" id="DejaVuSans-51"/>
       </defs>
       <use xlink:href="#DejaVuSans-51"/>
      </g>
     </g>
    </g>
    <g id="xtick_4">
     <g id="line2d_8">
      <g>
       <use style="stroke:#000000;stroke-width:0.8;" x="330.138947" xlink:href="#m801dfbe34e" y="307.584"/>
      </g>
     </g>
     <g id="text_4">
      <!-- 4 -->
      <g transform="translate(326.957697 322.182437)scale(0.1 -0.1)">
       <defs>
        <path d="M 37.796875 64.3125 
L 12.890625 25.390625 
L 37.796875 25.390625 
z
M 35.203125 72.90625 
L 47.609375 72.90625 
L 47.609375 25.390625 
L 58.015625 25.390625 
L 58.015625 17.1875 
L 47.609375 17.1875 
L 47.609375 0 
L 37.796875 0 
L 37.796875 17.1875 
L 4.890625 17.1875 
L 4.890625 26.703125 
z
" id="DejaVuSans-52"/>
       </defs>
       <use xlink:href="#DejaVuSans-52"/>
      </g>
     </g>
    </g>
    <g id="xtick_5">
     <g id="line2d_9">
      <g>
       <use style="stroke:#000000;stroke-width:0.8;" x="398.487273" xlink:href="#m801dfbe34e" y="307.584"/>
      </g>
     </g>
     <g id="text_5">
      <!-- 5 -->
      <g transform="translate(395.306023 322.182437)scale(0.1 -0.1)">
       <defs>
        <path d="M 10.796875 72.90625 
L 49.515625 72.90625 
L 49.515625 64.59375 
L 19.828125 64.59375 
L 19.828125 46.734375 
Q 21.96875 47.46875 24.109375 47.828125 
Q 26.265625 48.1875 28.421875 48.1875 
Q 40.625 48.1875 47.75 41.5 
Q 54.890625 34.8125 54.890625 23.390625 
Q 54.890625 11.625 47.5625 5.09375 
Q 40.234375 -1.421875 26.90625 -1.421875 
Q 22.3125 -1.421875 17.546875 -0.640625 
Q 12.796875 0.140625 7.71875 1.703125 
L 7.71875 11.625 
Q 12.109375 9.234375 16.796875 8.0625 
Q 21.484375 6.890625 26.703125 6.890625 
Q 35.15625 6.890625 40.078125 11.328125 
Q 45.015625 15.765625 45.015625 23.390625 
Q 45.015625 31 40.078125 35.4375 
Q 35.15625 39.890625 26.703125 39.890625 
Q 22.75 39.890625 18.8125 39.015625 
Q 14.890625 38.140625 10.796875 36.28125 
z
" id="DejaVuSans-53"/>
       </defs>
       <use xlink:href="#DejaVuSans-53"/>
      </g>
     </g>
    </g>
    <g id="text_6">
     <!-- T -->
     <g transform="translate(233.106094 335.860562)scale(0.1 -0.1)">
      <defs>
       <path d="M -0.296875 72.90625 
L 61.375 72.90625 
L 61.375 64.59375 
L 35.5 64.59375 
L 35.5 0 
L 25.59375 0 
L 25.59375 64.59375 
L -0.296875 64.59375 
z
" id="DejaVuSans-84"/>
      </defs>
      <use xlink:href="#DejaVuSans-84"/>
     </g>
    </g>
   </g>
   <g id="matplotlib.axis_2">
    <g id="ytick_1">
     <g id="line2d_10">
      <defs>
       <path d="M 0 0 
L -3.5 0 
" id="m73d2968204" style="stroke:#000000;stroke-width:0.8;"/>
      </defs>
      <g>
       <use style="stroke:#000000;stroke-width:0.8;" x="57.6" xlink:href="#m73d2968204" y="284.103828"/>
      </g>
     </g>
     <g id="text_7">
      <!-- 0.0 -->
      <g transform="translate(34.696875 287.903047)scale(0.1 -0.1)">
       <defs>
        <path d="M 31.78125 66.40625 
Q 24.171875 66.40625 20.328125 58.90625 
Q 16.5 51.421875 16.5 36.375 
Q 16.5 21.390625 20.328125 13.890625 
Q 24.171875 6.390625 31.78125 6.390625 
Q 39.453125 6.390625 43.28125 13.890625 
Q 47.125 21.390625 47.125 36.375 
Q 47.125 51.421875 43.28125 58.90625 
Q 39.453125 66.40625 31.78125 66.40625 
z
M 31.78125 74.21875 
Q 44.046875 74.21875 50.515625 64.515625 
Q 56.984375 54.828125 56.984375 36.375 
Q 56.984375 17.96875 50.515625 8.265625 
Q 44.046875 -1.421875 31.78125 -1.421875 
Q 19.53125 -1.421875 13.0625 8.265625 
Q 6.59375 17.96875 6.59375 36.375 
Q 6.59375 54.828125 13.0625 64.515625 
Q 19.53125 74.21875 31.78125 74.21875 
z
" id="DejaVuSans-48"/>
        <path d="M 10.6875 12.40625 
L 21 12.40625 
L 21 0 
L 10.6875 0 
z
" id="DejaVuSans-46"/>
       </defs>
       <use xlink:href="#DejaVuSans-48"/>
       <use x="63.623047" xlink:href="#DejaVuSans-46"/>
       <use x="95.410156" xlink:href="#DejaVuSans-48"/>
      </g>
     </g>
    </g>
    <g id="ytick_2">
     <g id="line2d_11">
      <g>
       <use style="stroke:#000000;stroke-width:0.8;" x="57.6" xlink:href="#m73d2968204" y="237.996663"/>
      </g>
     </g>
     <g id="text_8">
      <!-- 0.2 -->
      <g transform="translate(34.696875 241.795881)scale(0.1 -0.1)">
       <use xlink:href="#DejaVuSans-48"/>
       <use x="63.623047" xlink:href="#DejaVuSans-46"/>
       <use x="95.410156" xlink:href="#DejaVuSans-50"/>
      </g>
     </g>
    </g>
    <g id="ytick_3">
     <g id="line2d_12">
      <g>
       <use style="stroke:#000000;stroke-width:0.8;" x="57.6" xlink:href="#m73d2968204" y="191.889497"/>
      </g>
     </g>
     <g id="text_9">
      <!-- 0.4 -->
      <g transform="translate(34.696875 195.688716)scale(0.1 -0.1)">
       <use xlink:href="#DejaVuSans-48"/>
       <use x="63.623047" xlink:href="#DejaVuSans-46"/>
       <use x="95.410156" xlink:href="#DejaVuSans-52"/>
      </g>
     </g>
    </g>
    <g id="ytick_4">
     <g id="line2d_13">
      <g>
       <use style="stroke:#000000;stroke-width:0.8;" x="57.6" xlink:href="#m73d2968204" y="145.782331"/>
      </g>
     </g>
     <g id="text_10">
      <!-- 0.6 -->
      <g transform="translate(34.696875 149.58155)scale(0.1 -0.1)">
       <defs>
        <path d="M 33.015625 40.375 
Q 26.375 40.375 22.484375 35.828125 
Q 18.609375 31.296875 18.609375 23.390625 
Q 18.609375 15.53125 22.484375 10.953125 
Q 26.375 6.390625 33.015625 6.390625 
Q 39.65625 6.390625 43.53125 10.953125 
Q 47.40625 15.53125 47.40625 23.390625 
Q 47.40625 31.296875 43.53125 35.828125 
Q 39.65625 40.375 33.015625 40.375 
z
M 52.59375 71.296875 
L 52.59375 62.3125 
Q 48.875 64.0625 45.09375 64.984375 
Q 41.3125 65.921875 37.59375 65.921875 
Q 27.828125 65.921875 22.671875 59.328125 
Q 17.53125 52.734375 16.796875 39.40625 
Q 19.671875 43.65625 24.015625 45.921875 
Q 28.375 48.1875 33.59375 48.1875 
Q 44.578125 48.1875 50.953125 41.515625 
Q 57.328125 34.859375 57.328125 23.390625 
Q 57.328125 12.15625 50.6875 5.359375 
Q 44.046875 -1.421875 33.015625 -1.421875 
Q 20.359375 -1.421875 13.671875 8.265625 
Q 6.984375 17.96875 6.984375 36.375 
Q 6.984375 53.65625 15.1875 63.9375 
Q 23.390625 74.21875 37.203125 74.21875 
Q 40.921875 74.21875 44.703125 73.484375 
Q 48.484375 72.75 52.59375 71.296875 
z
" id="DejaVuSans-54"/>
       </defs>
       <use xlink:href="#DejaVuSans-48"/>
       <use x="63.623047" xlink:href="#DejaVuSans-46"/>
       <use x="95.410156" xlink:href="#DejaVuSans-54"/>
      </g>
     </g>
    </g>
    <g id="ytick_5">
     <g id="line2d_14">
      <g>
       <use style="stroke:#000000;stroke-width:0.8;" x="57.6" xlink:href="#m73d2968204" y="99.675166"/>
      </g>
     </g>
     <g id="text_11">
      <!-- 0.8 -->
      <g transform="translate(34.696875 103.474384)scale(0.1 -0.1)">
       <defs>
        <path d="M 31.78125 34.625 
Q 24.75 34.625 20.71875 30.859375 
Q 16.703125 27.09375 16.703125 20.515625 
Q 16.703125 13.921875 20.71875 10.15625 
Q 24.75 6.390625 31.78125 6.390625 
Q 38.8125 6.390625 42.859375 10.171875 
Q 46.921875 13.96875 46.921875 20.515625 
Q 46.921875 27.09375 42.890625 30.859375 
Q 38.875 34.625 31.78125 34.625 
z
M 21.921875 38.8125 
Q 15.578125 40.375 12.03125 44.71875 
Q 8.5 49.078125 8.5 55.328125 
Q 8.5 64.0625 14.71875 69.140625 
Q 20.953125 74.21875 31.78125 74.21875 
Q 42.671875 74.21875 48.875 69.140625 
Q 55.078125 64.0625 55.078125 55.328125 
Q 55.078125 49.078125 51.53125 44.71875 
Q 48 40.375 41.703125 38.8125 
Q 48.828125 37.15625 52.796875 32.3125 
Q 56.78125 27.484375 56.78125 20.515625 
Q 56.78125 9.90625 50.3125 4.234375 
Q 43.84375 -1.421875 31.78125 -1.421875 
Q 19.734375 -1.421875 13.25 4.234375 
Q 6.78125 9.90625 6.78125 20.515625 
Q 6.78125 27.484375 10.78125 32.3125 
Q 14.796875 37.15625 21.921875 38.8125 
z
M 18.3125 54.390625 
Q 18.3125 48.734375 21.84375 45.5625 
Q 25.390625 42.390625 31.78125 42.390625 
Q 38.140625 42.390625 41.71875 45.5625 
Q 45.3125 48.734375 45.3125 54.390625 
Q 45.3125 60.0625 41.71875 63.234375 
Q 38.140625 66.40625 31.78125 66.40625 
Q 25.390625 66.40625 21.84375 63.234375 
Q 18.3125 60.0625 18.3125 54.390625 
z
" id="DejaVuSans-56"/>
       </defs>
       <use xlink:href="#DejaVuSans-48"/>
       <use x="63.623047" xlink:href="#DejaVuSans-46"/>
       <use x="95.410156" xlink:href="#DejaVuSans-56"/>
      </g>
     </g>
    </g>
    <g id="ytick_6">
     <g id="line2d_15">
      <g>
       <use style="stroke:#000000;stroke-width:0.8;" x="57.6" xlink:href="#m73d2968204" y="53.568"/>
      </g>
     </g>
     <g id="text_12">
      <!-- 1.0 -->
      <g transform="translate(34.696875 57.367219)scale(0.1 -0.1)">
       <use xlink:href="#DejaVuSans-49"/>
       <use x="63.623047" xlink:href="#DejaVuSans-46"/>
       <use x="95.410156" xlink:href="#DejaVuSans-48"/>
      </g>
     </g>
    </g>
    <g id="text_13">
     <!-- $\langle m \rangle$ -->
     <g transform="translate(28.617188 183.328)rotate(-90)scale(0.1 -0.1)">
      <defs>
       <path d="M 8.9375 31.34375 
L 22.703125 75.875 
L 31 75.875 
L 17.234375 31.34375 
L 31 -13.1875 
L 22.703125 -13.1875 
z
" id="DejaVuSans-10216"/>
       <path d="M 89.796875 33.015625 
L 83.40625 0 
L 74.421875 0 
L 80.71875 32.71875 
Q 81.109375 34.8125 81.296875 36.328125 
Q 81.5 37.84375 81.5 38.921875 
Q 81.5 43.3125 79.046875 45.75 
Q 76.609375 48.1875 72.21875 48.1875 
Q 65.671875 48.1875 60.546875 43.28125 
Q 55.421875 38.375 53.90625 30.515625 
L 47.90625 0 
L 38.921875 0 
L 45.3125 32.71875 
Q 45.703125 34.515625 45.890625 36.046875 
Q 46.09375 37.59375 46.09375 38.8125 
Q 46.09375 43.265625 43.65625 45.71875 
Q 41.21875 48.1875 36.921875 48.1875 
Q 30.28125 48.1875 25.140625 43.28125 
Q 20.015625 38.375 18.5 30.515625 
L 12.5 0 
L 3.515625 0 
L 14.203125 54.6875 
L 23.1875 54.6875 
L 21.484375 46.1875 
Q 25.140625 50.984375 30.046875 53.484375 
Q 34.96875 56 40.578125 56 
Q 46.53125 56 50.359375 52.875 
Q 54.203125 49.75 54.984375 44.1875 
Q 59.078125 49.953125 64.46875 52.96875 
Q 69.875 56 75.875 56 
Q 82.90625 56 86.734375 51.953125 
Q 90.578125 47.90625 90.578125 40.484375 
Q 90.578125 38.875 90.375 36.9375 
Q 90.1875 35.015625 89.796875 33.015625 
z
" id="DejaVuSans-Oblique-109"/>
       <path d="M 30.078125 31.34375 
L 16.3125 -13.1875 
L 8.015625 -13.1875 
L 21.78125 31.34375 
L 8.015625 75.875 
L 16.3125 75.875 
z
" id="DejaVuSans-10217"/>
      </defs>
      <use transform="translate(0 0.125)" xlink:href="#DejaVuSans-10216"/>
      <use transform="translate(39.013672 0.125)" xlink:href="#DejaVuSans-Oblique-109"/>
      <use transform="translate(136.425781 0.125)" xlink:href="#DejaVuSans-10217"/>
     </g>
    </g>
   </g>
   <g id="patch_3">
    <path d="M 57.6 307.584 
L 57.6 41.472 
" style="fill:none;stroke:#000000;stroke-linecap:square;stroke-linejoin:miter;stroke-width:0.8;"/>
   </g>
   <g id="patch_4">
    <path d="M 414.72 307.584 
L 414.72 41.472 
" style="fill:none;stroke:#000000;stroke-linecap:square;stroke-linejoin:miter;stroke-width:0.8;"/>
   </g>
   <g id="patch_5">
    <path d="M 57.6 307.584 
L 414.72 307.584 
" style="fill:none;stroke:#000000;stroke-linecap:square;stroke-linejoin:miter;stroke-width:0.8;"/>
   </g>
   <g id="patch_6">
    <path d="M 57.6 41.472 
L 414.72 41.472 
" style="fill:none;stroke:#000000;stroke-linecap:square;stroke-linejoin:miter;stroke-width:0.8;"/>
   </g>
   <g id="legend_1">
    <g id="line2d_16">
     <path d="M 347.12 54.570437 
L 367.12 54.570437 
" style="fill:none;stroke:#ffe4c4;stroke-linecap:square;stroke-width:1.5;"/>
    </g>
    <g id="line2d_17"/>
    <g id="text_14">
     <!-- $exact$ -->
     <g transform="translate(375.12 58.070437)scale(0.1 -0.1)">
      <defs>
       <path d="M 48.09375 32.234375 
Q 48.25 33.015625 48.3125 33.84375 
Q 48.390625 34.671875 48.390625 35.5 
Q 48.390625 41.453125 44.890625 44.921875 
Q 41.40625 48.390625 35.40625 48.390625 
Q 28.71875 48.390625 23.578125 44.15625 
Q 18.453125 39.9375 15.828125 32.171875 
z
M 55.90625 25.203125 
L 14.109375 25.203125 
Q 13.8125 23.34375 13.71875 22.265625 
Q 13.625 21.1875 13.625 20.40625 
Q 13.625 13.625 17.796875 9.90625 
Q 21.96875 6.203125 29.59375 6.203125 
Q 35.453125 6.203125 40.671875 7.515625 
Q 45.90625 8.84375 50.390625 11.375 
L 48.6875 2.484375 
Q 43.84375 0.53125 38.6875 -0.4375 
Q 33.546875 -1.421875 28.21875 -1.421875 
Q 16.84375 -1.421875 10.71875 4.015625 
Q 4.59375 9.46875 4.59375 19.484375 
Q 4.59375 28.03125 7.640625 35.375 
Q 10.6875 42.71875 16.609375 48.484375 
Q 20.40625 52.09375 25.65625 54.046875 
Q 30.90625 56 36.8125 56 
Q 46.09375 56 51.578125 50.4375 
Q 57.078125 44.875 57.078125 35.5 
Q 57.078125 33.25 56.78125 30.6875 
Q 56.5 28.125 55.90625 25.203125 
z
" id="DejaVuSans-Oblique-101"/>
       <path d="M 60.015625 54.6875 
L 34.90625 27.875 
L 50.296875 0 
L 39.984375 0 
L 28.421875 21.6875 
L 8.296875 0 
L -2.59375 0 
L 24.3125 28.8125 
L 10.015625 54.6875 
L 20.3125 54.6875 
L 30.8125 34.90625 
L 49.125 54.6875 
z
" id="DejaVuSans-Oblique-120"/>
       <path d="M 53.71875 31.203125 
L 47.609375 0 
L 38.625 0 
L 40.28125 8.296875 
Q 36.328125 3.421875 31.265625 1 
Q 26.21875 -1.421875 20.015625 -1.421875 
Q 13.03125 -1.421875 8.5625 2.84375 
Q 4.109375 7.125 4.109375 13.8125 
Q 4.109375 23.390625 11.75 28.953125 
Q 19.390625 34.515625 32.8125 34.515625 
L 45.3125 34.515625 
L 45.796875 36.921875 
Q 45.90625 37.3125 45.953125 37.765625 
Q 46 38.234375 46 39.203125 
Q 46 43.5625 42.453125 45.96875 
Q 38.921875 48.390625 32.515625 48.390625 
Q 28.125 48.390625 23.5 47.265625 
Q 18.890625 46.140625 14.015625 43.890625 
L 15.578125 52.203125 
Q 20.65625 54.109375 25.515625 55.046875 
Q 30.375 56 34.90625 56 
Q 44.578125 56 49.625 51.796875 
Q 54.6875 47.609375 54.6875 39.59375 
Q 54.6875 37.984375 54.4375 35.8125 
Q 54.203125 33.640625 53.71875 31.203125 
z
M 44 27.484375 
L 35.015625 27.484375 
Q 23.96875 27.484375 18.671875 24.53125 
Q 13.375 21.578125 13.375 15.375 
Q 13.375 11.078125 16.078125 8.640625 
Q 18.796875 6.203125 23.578125 6.203125 
Q 30.90625 6.203125 36.375 11.453125 
Q 41.84375 16.703125 43.609375 25.484375 
z
" id="DejaVuSans-Oblique-97"/>
       <path d="M 53.609375 52.59375 
L 51.8125 43.703125 
Q 48.578125 46.046875 44.9375 47.21875 
Q 41.3125 48.390625 37.40625 48.390625 
Q 33.109375 48.390625 29.21875 46.875 
Q 25.34375 45.359375 22.703125 42.578125 
Q 18.5 38.328125 16.203125 32.609375 
Q 13.921875 26.90625 13.921875 20.796875 
Q 13.921875 13.421875 17.609375 9.8125 
Q 21.296875 6.203125 28.8125 6.203125 
Q 32.515625 6.203125 36.6875 7.328125 
Q 40.875 8.453125 45.40625 10.6875 
L 43.703125 1.8125 
Q 39.796875 0.203125 35.671875 -0.609375 
Q 31.546875 -1.421875 27.203125 -1.421875 
Q 16.3125 -1.421875 10.453125 4.015625 
Q 4.59375 9.46875 4.59375 19.578125 
Q 4.59375 28.078125 7.640625 35.234375 
Q 10.6875 42.390625 16.703125 48.09375 
Q 20.796875 52 26.3125 54 
Q 31.84375 56 38.375 56 
Q 42.1875 56 45.9375 55.140625 
Q 49.703125 54.296875 53.609375 52.59375 
z
" id="DejaVuSans-Oblique-99"/>
       <path d="M 42.28125 54.6875 
L 40.921875 47.703125 
L 23 47.703125 
L 17.1875 18.015625 
Q 16.890625 16.359375 16.75 15.234375 
Q 16.609375 14.109375 16.609375 13.484375 
Q 16.609375 10.359375 18.484375 8.9375 
Q 20.359375 7.515625 24.515625 7.515625 
L 33.59375 7.515625 
L 32.078125 0 
L 23.484375 0 
Q 15.484375 0 11.546875 3.125 
Q 7.625 6.25 7.625 12.59375 
Q 7.625 13.71875 7.765625 15.0625 
Q 7.90625 16.40625 8.203125 18.015625 
L 14.015625 47.703125 
L 6.390625 47.703125 
L 7.8125 54.6875 
L 15.28125 54.6875 
L 18.3125 70.21875 
L 27.296875 70.21875 
L 24.3125 54.6875 
z
" id="DejaVuSans-Oblique-116"/>
      </defs>
      <use transform="translate(0 0.78125)" xlink:href="#DejaVuSans-Oblique-101"/>
      <use transform="translate(61.523438 0.78125)" xlink:href="#DejaVuSans-Oblique-120"/>
      <use transform="translate(120.703125 0.78125)" xlink:href="#DejaVuSans-Oblique-97"/>
      <use transform="translate(181.982422 0.78125)" xlink:href="#DejaVuSans-Oblique-99"/>
      <use transform="translate(236.962891 0.78125)" xlink:href="#DejaVuSans-Oblique-116"/>
     </g>
    </g>
    <g id="LineCollection_2">
     <path d="M 357.12 74.248562 
L 357.12 64.248562 
" style="fill:none;stroke:#ff8c00;stroke-opacity:0.5;stroke-width:1.5;"/>
    </g>
    <g id="line2d_18">
     <g>
      <use style="fill:#ff8c00;fill-opacity:0.5;stroke:#ff8c00;stroke-opacity:0.5;" x="357.12" xlink:href="#m5603b794c0" y="74.248562"/>
     </g>
    </g>
    <g id="line2d_19">
     <g>
      <use style="fill:#ff8c00;fill-opacity:0.5;stroke:#ff8c00;stroke-opacity:0.5;" x="357.12" xlink:href="#m5603b794c0" y="64.248562"/>
     </g>
    </g>
    <g id="line2d_20"/>
    <g id="line2d_21">
     <g>
      <use style="fill:#ff8c00;fill-opacity:0.5;stroke:#ff8c00;stroke-linejoin:miter;stroke-opacity:0.5;" x="357.12" xlink:href="#m098c42a9d0" y="69.248562"/>
     </g>
    </g>
    <g id="text_15">
     <!-- $L=16$ -->
     <g transform="translate(375.12 72.748562)scale(0.1 -0.1)">
      <defs>
       <path d="M 16.796875 72.90625 
L 26.703125 72.90625 
L 14.203125 8.203125 
L 49.703125 8.203125 
L 48.09375 0 
L 2.6875 0 
z
" id="DejaVuSans-Oblique-76"/>
       <path d="M 10.59375 45.40625 
L 73.1875 45.40625 
L 73.1875 37.203125 
L 10.59375 37.203125 
z
M 10.59375 25.484375 
L 73.1875 25.484375 
L 73.1875 17.1875 
L 10.59375 17.1875 
z
" id="DejaVuSans-61"/>
      </defs>
      <use transform="translate(0 0.78125)" xlink:href="#DejaVuSans-Oblique-76"/>
      <use transform="translate(75.195312 0.78125)" xlink:href="#DejaVuSans-61"/>
      <use transform="translate(178.466797 0.78125)" xlink:href="#DejaVuSans-49"/>
      <use transform="translate(242.089844 0.78125)" xlink:href="#DejaVuSans-54"/>
     </g>
    </g>
   </g>
  </g>
 </g>
 <defs>
  <clipPath id="p948178f340">
   <rect height="266.112" width="357.12" x="57.6" y="41.472"/>
  </clipPath>
 </defs>
</svg>
